<svg xmlns="http://www.w3.org/2000/svg" version="1.1" xmlns:xlink="http://www.w3.org/1999/xlink" xmlns:svgjs="http://svgjs.dev/svgjs" width="1500" height="1500" viewBox="0 0 1500 1500"><rect width="1500" height="1500" fill="#000000"></rect><g transform="matrix(0.6666666666666666,0,0,0.6666666666666666,249.39393939393932,566.6180883660666)"><svg viewBox="0 0 396 145" data-background-color="#9323ba" preserveAspectRatio="xMidYMid meet" height="549" width="1500" xmlns="http://www.w3.org/2000/svg" xmlns:xlink="http://www.w3.org/1999/xlink"><g id="tight-bounds" transform="matrix(1,0,0,1,0.24000000000003752,0.15151083412055755)"><svg viewBox="0 0 395.5199999999999 144.6971853764797" height="144.6971853764797" width="395.5199999999999"><g><svg viewBox="0 0 668.1366417436532 244.43135999999998" height="144.6971853764797" width="395.5199999999999"><g transform="matrix(1,0,0,1,272.61664174365325,74.79187442526316)"><svg viewBox="0 0 395.52 94.84761114947368" height="94.84761114947368" width="395.52"><g id="textblocktransform"><svg viewBox="0 0 395.52 94.84761114947368" height="94.84761114947368" width="395.52" id="textblock"><g><svg viewBox="0 0 395.52 47.75628482972136" height="47.75628482972136" width="395.52"><g transform="matrix(1,0,0,1,0,0)"><svg width="395.52" viewBox="3.35 -33.75 371.40999999999997 44.85" height="47.75628482972136" data-palette-color="#f7f7ee"><path d="M8.7-31.7Q8.7-30.4 8.65-28.68 8.6-26.95 8.55-26.05L8.55-26.05Q8.4-23.5 8.4-20.95L8.4-20.95Q8.4-19.05 8.55-17L8.55-17Q10.1-19.25 11.9-20.3 13.7-21.35 16.25-21.35L16.25-21.35Q18.1-21.35 19.7-19.7 21.3-18.05 21.75-15.85L21.75-15.85Q21.9-13.9 21.9-11.1L21.9-11.1Q21.9-9.3 22.1-6.4L22.1-6.4Q22.2-5.3 22.68-4.35 23.15-3.4 24.05-3.4L24.05-3.4Q24.5-3.4 24.78-3.45 25.05-3.5 25.3-3.5L25.3-3.5Q26-3.5 26.28-3.15 26.55-2.8 26.55-2.15L26.55-2.15Q26.55-0.95 25.35-0.35 24.15 0.25 23.15 0.25L23.15 0.25Q19.55 0.25 18.2-2.75L18.2-2.75Q17.45-4.45 17.25-7.18 17.05-9.9 17.05-13.55L17.05-13.55Q17.05-17.15 14.6-17.15L14.6-17.15Q13.25-17.15 11.88-15.73 10.5-14.3 9.6-11.98 8.7-9.65 8.7-7.15L8.7-7.15 8.75-1.95Q8.75-0.85 7.9-0.33 7.05 0.2 6.3 0.2L6.3 0.2Q5.2 0.2 4.3-0.48 3.4-1.15 3.4-2L3.4-2Q3.75-5.75 3.75-14.55L3.75-14.55Q3.75-16.15 3.5-26.4L3.5-26.4 3.35-31Q3.35-32.1 4.35-32.93 5.35-33.75 6.6-33.75L6.6-33.75Q7.7-33.75 8.2-33.25 8.7-32.75 8.7-31.7L8.7-31.7ZM52.3-2.4Q52.3-1.3 51.12-0.55 49.95 0.2 48.95 0.2L48.95 0.2Q47.05 0.2 45.92-0.28 44.8-0.75 43.85-2.05L43.85-2.05Q42.55-0.9 40.3-0.33 38.05 0.25 36.15 0.25L36.15 0.25Q33.05 0.25 31.05-1.43 29.05-3.1 29.05-6.35L29.05-6.35Q29.05-7.75 29.8-8.93 30.55-10.1 31.85-11L31.85-11Q33.3-11.95 35.15-12.48 37-13 39-13L39-13Q40.05-13 41.5-12.6 42.95-12.2 43.75-11.75L43.75-11.75 43.75-12.55Q43.75-15.25 42.45-16.28 41.15-17.3 38.25-17.3L38.25-17.3Q37.4-17.3 36.57-16.95 35.75-16.6 34.7-16L34.7-16Q33.3-15.25 32.05-15.25L32.05-15.25Q31.6-15.25 31.2-15.88 30.8-16.5 30.8-17L30.8-17Q30.8-18.45 32.17-19.5 33.55-20.55 35.45-21.08 37.35-21.6 38.85-21.6L38.85-21.6Q40.35-21.6 42.3-21.03 44.25-20.45 45.5-19.45L45.5-19.45Q47-18.15 47.82-16.43 48.65-14.7 48.65-12.65L48.65-12.65Q48.65-12 48.55-10.7L48.55-10.7Q48.45-9.3 48.45-8.3L48.45-8.3Q48.45-7.85 48.35-6.95L48.35-6.95Q48.25-5.85 48.25-5.2L48.25-5.2Q48.25-4.6 48.7-4.17 49.15-3.75 49.75-3.75L49.75-3.75 51.15-3.8Q51.7-3.8 52-3.4 52.3-3 52.3-2.4L52.3-2.4ZM36.2-3.7Q38.35-3.7 39.8-4.15 41.25-4.6 43.3-5.8L43.3-5.8Q43.5-6.65 43.55-8.05L43.55-8.05Q40.8-9.35 39-9.35L39-9.35Q36.95-9.35 35.35-8.6 33.75-7.85 33.75-5.95L33.75-5.95Q33.75-5 34.55-4.35 35.35-3.7 36.2-3.7L36.2-3.7ZM56.75-17.4Q56.3-17.4 55.9-17.32 55.5-17.25 55.1-17.25L55.1-17.25Q54.55-17.25 54.07-17.75 53.6-18.25 53.6-18.65L53.6-18.65Q53.6-19.95 54.9-20.68 56.2-21.4 57.55-21.4L57.55-21.4Q58.7-21.4 59.92-20.63 61.15-19.85 61.75-18.65L61.75-18.65Q63.05-20.2 64.95-20.9 66.85-21.6 68.9-21.6L68.9-21.6Q71.2-21.6 73.17-20.15 75.15-18.7 76.3-16.48 77.45-14.25 77.45-12.05L77.45-12.05Q77.45-9.9 77-8.22 76.55-6.55 75.4-4.85L75.4-4.85Q74.1-3.05 71.92-1.9 69.75-0.75 66.75-0.75L66.75-0.75Q65.95-0.75 64.8-1.18 63.65-1.6 62.9-2.1L62.9-2.1Q62.55 1.3 62.55 3.8L62.55 3.8Q62.55 5.3 62.7 6.65L62.7 6.65Q62.8 8.25 62.8 8.95L62.8 8.95Q62.8 10.05 62.05 10.58 61.3 11.1 60.4 11.1L60.4 11.1Q58.6 11.1 58.02 10.13 57.45 9.15 57.45 7.35L57.45 7.35Q57.65 3.05 57.95-0.6L57.95-0.6Q58.25-5.1 58.25-14.5L58.25-14.5Q58.25-15.4 57.9-16.4 57.55-17.4 56.75-17.4L56.75-17.4ZM63.1-7.05Q63.35-6.1 64.52-5.48 65.7-4.85 66.65-4.85L66.65-4.85Q69.5-4.85 70.9-6.4L70.9-6.4Q71.95-7.5 72.27-8.55 72.6-9.6 72.6-11.9L72.6-11.9Q72.6-13.7 71.9-14.93 71.2-16.15 70.2-16.73 69.2-17.3 68.3-17.3L68.3-17.3Q66.25-17.3 64.97-16.07 63.7-14.85 63.35-12.75L63.35-12.75Q63.1-11.1 63.1-7.05L63.1-7.05ZM83.19-17.4Q82.74-17.4 82.34-17.32 81.94-17.25 81.54-17.25L81.54-17.25Q80.99-17.25 80.52-17.75 80.04-18.25 80.04-18.65L80.04-18.65Q80.04-19.95 81.34-20.68 82.64-21.4 83.99-21.4L83.99-21.4Q85.14-21.4 86.37-20.63 87.59-19.85 88.19-18.65L88.19-18.65Q89.49-20.2 91.39-20.9 93.29-21.6 95.34-21.6L95.34-21.6Q97.64-21.6 99.62-20.15 101.59-18.7 102.74-16.48 103.89-14.25 103.89-12.05L103.89-12.05Q103.89-9.9 103.44-8.22 102.99-6.55 101.84-4.85L101.84-4.85Q100.54-3.05 98.37-1.9 96.19-0.75 93.19-0.75L93.19-0.75Q92.39-0.75 91.24-1.18 90.09-1.6 89.34-2.1L89.34-2.1Q88.99 1.3 88.99 3.8L88.99 3.8Q88.99 5.3 89.14 6.65L89.14 6.65Q89.24 8.25 89.24 8.95L89.24 8.95Q89.24 10.05 88.49 10.58 87.74 11.1 86.84 11.1L86.84 11.1Q85.04 11.1 84.47 10.13 83.89 9.15 83.89 7.35L83.89 7.35Q84.09 3.05 84.39-0.6L84.39-0.6Q84.69-5.1 84.69-14.5L84.69-14.5Q84.69-15.4 84.34-16.4 83.99-17.4 83.19-17.4L83.19-17.4ZM89.54-7.05Q89.79-6.1 90.97-5.48 92.14-4.85 93.09-4.85L93.09-4.85Q95.94-4.85 97.34-6.4L97.34-6.4Q98.39-7.5 98.72-8.55 99.04-9.6 99.04-11.9L99.04-11.9Q99.04-13.7 98.34-14.93 97.64-16.15 96.64-16.73 95.64-17.3 94.74-17.3L94.74-17.3Q92.69-17.3 91.42-16.07 90.14-14.85 89.79-12.75L89.79-12.75Q89.54-11.1 89.54-7.05L89.54-7.05ZM113.94 10.2Q112.04 10.2 110.77 9.58 109.49 8.95 108.87 8.08 108.24 7.2 108.24 6.55L108.24 6.55Q108.24 5.7 108.84 5.23 109.44 4.75 110.29 4.75L110.29 4.75Q110.79 4.75 111.24 5.05 111.69 5.35 111.74 5.4L111.74 5.4Q112.09 5.65 112.44 5.83 112.79 6 113.19 6L113.19 6Q114.29 6 114.99 4.55 115.69 3.1 116.39-0.15L116.39-0.15Q114.14-3.45 112.64-6.75L112.64-6.75 111.49-9.4Q111.24-10 110.12-12.53 108.99-15.05 107.89-17L107.89-17Q107.19-18.4 107.19-18.9L107.19-18.9Q107.19-20.15 108.07-20.75 108.94-21.35 110.09-21.35L110.09-21.35Q110.89-21.35 111.32-21.03 111.74-20.7 112.29-19.85L112.29-19.85Q113.74-17.45 115.44-12.65L115.44-12.65Q116.44-9.9 117.04-8.47 117.64-7.05 118.49-5.6L118.49-5.6Q119.34-7.55 120.64-12.25L120.64-12.25Q121.44-14.95 121.97-16.57 122.49-18.2 123.14-19.55L123.14-19.55Q123.59-20.45 124.27-21 124.94-21.55 125.79-21.55L125.79-21.55Q126.64-21.55 127.62-20.93 128.59-20.3 128.59-19.45L128.59-19.45Q128.59-18.95 128.24-18.25L128.24-18.25Q126.29-13.75 124.82-9.78 123.34-5.8 121.99-1.05L121.99-1.05Q121.19 1.6 120.32 4 119.44 6.4 119.09 6.95L119.09 6.95Q118.09 8.35 116.84 9.28 115.59 10.2 113.94 10.2L113.94 10.2ZM142.79-10.6Q142.79-12.5 143.49-14.43 144.19-16.35 145.34-17.95L145.34-17.95Q146.49-19.55 148.99-20.58 151.49-21.6 153.44-21.6L153.44-21.6Q155.44-21.6 157.51-21.05 159.59-20.5 160.39-19.35L160.39-19.35Q162.24-16.75 162.24-14.25L162.24-14.25Q162.24-12.9 161.66-11.95 161.09-11 160.04-9.9L160.04-9.9Q159.19-9 157.36-8.7 155.54-8.4 153.74-8.4L153.74-8.4Q152.59-8.4 150.94-8.63 149.29-8.85 147.74-9.2L147.74-9.2Q147.84-8.2 148.24-7.25 148.64-6.3 149.19-5.8L149.19-5.8Q150.19-4.85 151.26-4.6 152.34-4.35 154.04-4.35L154.04-4.35Q155.84-4.35 157.39-4.95L157.39-4.95Q158.64-5.4 159.44-5.4L159.44-5.4Q160.39-5.4 160.89-4.83 161.39-4.25 161.39-3.35L161.39-3.35Q161.39-2.1 159.94-1.3 158.49-0.5 156.61-0.13 154.74 0.25 153.59 0.25L153.59 0.25Q151.24 0.25 149.04-0.6 146.84-1.45 145.39-3L145.39-3Q144.19-4.4 143.49-6.38 142.79-8.35 142.79-10.6L142.79-10.6ZM153.69-17.35Q152.59-17.35 151.49-16.93 150.39-16.5 149.69-15.75L149.69-15.75Q148.79-14.8 148.46-14.23 148.14-13.65 148.04-12.65L148.04-12.65Q149.29-12.25 153.24-12.25L153.24-12.25Q155.39-12.25 156.56-12.9 157.74-13.55 157.74-14.6L157.74-14.6Q157.74-15.65 156.44-16.5 155.14-17.35 153.69-17.35L153.69-17.35ZM172.63-7.75Q172.63-5.85 173.21-4.83 173.78-3.8 174.68-3.8L174.68-3.8Q175.18-3.8 175.63-3.88 176.08-3.95 176.53-3.95L176.53-3.95Q177.03-3.95 177.41-3.45 177.78-2.95 177.78-2.35L177.78-2.35Q177.78-1.15 176.66-0.48 175.53 0.2 173.63 0.2L173.63 0.2Q172.28 0.2 170.91-0.63 169.53-1.45 168.63-3.23 167.73-5 167.73-7.65L167.73-7.65Q167.73-13.35 167.93-17.3L167.93-17.3Q168.18-22 168.18-29.15L168.18-29.15Q168.18-31.4 168.43-32.3L168.43-32.3Q168.73-33 169.41-33.38 170.08-33.75 170.83-33.75L170.83-33.75Q171.58-33.75 172.16-33.5 172.73-33.25 172.93-32.7L172.93-32.7Q173.13-32.1 173.21-31.53 173.28-30.95 173.28-29.9L173.28-29.9Q173.28-27.85 173.13-25.95L173.13-25.95Q173.03-23.65 173.03-22.6L173.03-22.6Q172.63-13.8 172.63-7.75L172.63-7.75ZM180.78-10.6Q180.78-12.5 181.48-14.43 182.18-16.35 183.33-17.95L183.33-17.95Q184.48-19.55 186.98-20.58 189.48-21.6 191.43-21.6L191.43-21.6Q193.43-21.6 195.51-21.05 197.58-20.5 198.38-19.35L198.38-19.35Q200.23-16.75 200.23-14.25L200.23-14.25Q200.23-12.9 199.66-11.95 199.08-11 198.03-9.9L198.03-9.9Q197.18-9 195.36-8.7 193.53-8.4 191.73-8.4L191.73-8.4Q190.58-8.4 188.93-8.63 187.28-8.85 185.73-9.2L185.73-9.2Q185.83-8.2 186.23-7.25 186.63-6.3 187.18-5.8L187.18-5.8Q188.18-4.85 189.26-4.6 190.33-4.35 192.03-4.35L192.03-4.35Q193.83-4.35 195.38-4.95L195.38-4.95Q196.63-5.4 197.43-5.4L197.43-5.4Q198.38-5.4 198.88-4.83 199.38-4.25 199.38-3.35L199.38-3.35Q199.38-2.1 197.93-1.3 196.48-0.5 194.61-0.13 192.73 0.25 191.58 0.25L191.58 0.25Q189.23 0.25 187.03-0.6 184.83-1.45 183.38-3L183.38-3Q182.18-4.4 181.48-6.38 180.78-8.35 180.78-10.6L180.78-10.6ZM191.68-17.35Q190.58-17.35 189.48-16.93 188.38-16.5 187.68-15.75L187.68-15.75Q186.78-14.8 186.46-14.23 186.13-13.65 186.03-12.65L186.03-12.65Q187.28-12.25 191.23-12.25L191.23-12.25Q193.38-12.25 194.56-12.9 195.73-13.55 195.73-14.6L195.73-14.6Q195.73-15.65 194.43-16.5 193.13-17.35 191.68-17.35L191.68-17.35ZM222.78-16.7Q222.78-14.5 220.53-14.5L220.53-14.5Q219.78-14.5 219.28-14.85 218.78-15.2 218.18-15.9L218.18-15.9Q216.68-17.55 215.58-17.55L215.58-17.55Q214.13-17.55 212.75-16.7 211.38-15.85 210.53-14.3 209.68-12.75 209.68-10.85L209.68-10.85Q209.68-8.75 210.5-7.35 211.33-5.95 213.08-4.95L213.08-4.95Q213.73-4.6 214.6-4.4 215.48-4.2 216.13-4.2L216.13-4.2Q217.58-4.2 219.78-5.35L219.78-5.35Q220.58-5.75 221.13-5.95 221.68-6.15 222.28-6.15L222.28-6.15Q222.83-6.15 223.53-5.65 224.23-5.15 224.23-4.4L224.23-4.4Q224.23-2.9 222.83-1.88 221.43-0.85 219.4-0.33 217.38 0.2 215.53 0.2L215.53 0.2Q212.58 0.2 210.05-1.15 207.53-2.5 206.03-4.88 204.53-7.25 204.53-10.25L204.53-10.25Q204.53-13.45 205.98-16.1 207.43-18.75 209.88-20.25 212.33-21.75 215.23-21.75L215.23-21.75Q216.88-21.75 218.63-21.15 220.38-20.55 221.58-19.4 222.78-18.25 222.78-16.7L222.78-16.7ZM230.88-17.1L228.48-17.3Q227.78-17.4 227.35-17.9 226.93-18.4 226.93-19.1L226.93-19.1Q226.93-19.45 227.1-19.85 227.28-20.25 227.63-20.55L227.63-20.55Q228.28-21.2 231.13-21.2L231.13-21.2Q231.53-23.15 231.53-25.15L231.53-25.15Q231.53-25.9 231.48-26.45 231.43-27 231.43-27.3L231.43-27.3Q231.43-28.4 232.25-28.95 233.08-29.5 234.13-29.5L234.13-29.5Q235.43-29.5 235.9-28.85 236.38-28.2 236.38-26.45L236.38-26.45Q236.38-23.85 235.93-21.35L235.93-21.35Q236.73-21.35 238.13-21.45L238.13-21.45Q240.03-21.55 240.88-21.55L240.88-21.55Q241.73-21.55 242.35-21.13 242.98-20.7 242.98-19.95L242.98-19.95Q242.98-18 241.23-17.65L241.23-17.65Q239.38-17.2 235.48-17.1L235.48-17.1Q235.33-15.15 235.33-12.85L235.33-12.85Q235.33-9.25 235.78-6.95L235.78-6.95Q236.08-5.35 236.8-4.63 237.53-3.9 238.98-3.9L238.98-3.9Q239.83-3.9 240.73-4.35L240.73-4.35Q241.33-4.7 241.83-4.7L241.83-4.7Q242.53-4.7 242.85-4.25 243.18-3.8 243.18-3.05L243.18-3.05Q243.18-1.65 241.68-0.73 240.18 0.2 237.83 0.2L237.83 0.2Q236.38 0.2 234.9-0.5 233.43-1.2 232.43-2.25L232.43-2.25Q232.28-2.4 231.88-3.4 231.48-4.4 231.18-5.55L231.18-5.55Q230.68-7.9 230.68-12.15L230.68-12.15Q230.68-14 230.88-17.1L230.88-17.1ZM254.67-2Q254.67-1.15 254.02-0.5 253.37 0.15 252.42 0.15L252.42 0.15Q250.92 0.15 250.22-0.43 249.52-1 249.52-2.55L249.52-2.55Q249.52-4.4 249.42-7.4L249.42-7.4Q249.32-9.9 249.32-11.6L249.32-11.6Q249.32-12.4 249.42-13.7L249.42-13.7Q249.52-14.9 249.52-15.5L249.52-15.5Q249.37-16.45 248.77-17.07 248.17-17.7 247.22-17.7L247.22-17.7Q246.77-17.7 246.47-18.13 246.17-18.55 246.17-19L246.17-19Q246.17-20.15 247.1-20.75 248.02-21.35 249.32-21.35L249.32-21.35Q252.02-21.35 253.07-18.15L253.07-18.15Q254.37-19.65 256.05-20.58 257.72-21.5 259.27-21.5L259.27-21.5Q261.12-21.5 262.65-20.5 264.17-19.5 264.17-17.8L264.17-17.8Q264.17-16.85 263.35-15.85 262.52-14.85 261.67-14.85L261.67-14.85Q261.22-14.85 260.9-15.08 260.57-15.3 260.12-15.75L260.12-15.75Q259.62-16.25 259.27-16.48 258.92-16.7 258.47-16.7L258.47-16.7Q257.67-16.7 256.97-16.45 256.27-16.2 256.02-15.85L256.02-15.85Q255.22-14.6 254.85-13.6 254.47-12.6 254.47-11.45L254.47-11.45Q254.47-10.6 254.42-10.1L254.42-10.1 254.37-7.25Q254.37-6.6 254.42-5.8 254.47-5 254.52-4.6L254.52-4.6Q254.67-3.25 254.67-2L254.67-2ZM286.92-16.05Q287.32-15.35 287.57-14.03 287.82-12.7 287.82-11.65L287.82-11.65Q287.82-9.7 286.97-6.1L286.97-6.1Q283.52 0.2 276.77 0.2L276.77 0.2Q274.27 0.2 271.67-1.45 269.07-3.1 268.07-5.25L268.07-5.25Q266.72-9.55 266.72-10.7L266.72-10.7Q266.72-12.7 267.6-14.95 268.47-17.2 269.82-18.85L269.82-18.85Q270.67-20 272.87-20.83 275.07-21.65 276.87-21.65L276.87-21.65Q280.37-21.65 282.82-20.33 285.27-19 286.92-16.05L286.92-16.05ZM282.57-8Q282.82-8.65 282.82-11.35L282.82-11.35Q282.82-12.8 282.3-14.2 281.77-15.6 280.77-16.6L280.77-16.6Q280.67-16.7 280.22-16.93 279.77-17.15 279-17.38 278.22-17.6 277.22-17.6L277.22-17.6Q274.42-17.6 273.12-15.35 271.82-13.1 271.82-10.25L271.82-10.25Q271.82-9.75 272.1-8.35 272.37-6.95 272.57-6.6L272.57-6.6Q272.72-6.25 273.35-5.63 273.97-5 274.9-4.53 275.82-4.05 276.82-4.05L276.82-4.05Q279.07-4.05 280.42-5.13 281.77-6.2 282.57-8L282.57-8ZM315.52-3.85Q315.77-3.75 316.32-3.6 316.87-3.45 317.12-3.3 317.37-3.15 317.37-2.85L317.37-2.85Q317.42-1.65 316.49-0.88 315.57-0.1 314.32-0.1L314.32-0.1Q312.37-0.1 311.27-1.15 310.17-2.2 309.67-4.35L309.67-4.35Q309.47-5.2 309.47-6.7L309.47-6.7Q309.47-7.55 309.57-9.45L309.57-9.45Q309.67-11.45 309.67-12.65L309.67-12.65Q309.67-14.4 308.69-15.73 307.72-17.05 305.97-17.05L305.97-17.05Q304.92-17.05 303.77-16.43 302.62-15.8 302.17-14.9L302.17-14.9Q301.42-13.45 301.12-11.75L301.12-11.75Q300.57-8.75 300.57-5.5L300.57-5.5Q300.57-3.95 300.62-3.1L300.62-3.1Q300.62-2.9 300.64-2.33 300.67-1.75 300.54-1.28 300.42-0.8 300.12-0.4L300.12-0.4Q299.87-0.15 299.34 0.03 298.82 0.2 298.37 0.2L298.37 0.2Q297.67 0.2 296.62-0.4 295.57-1 295.42-1.75L295.42-1.75 295.37-2.6Q295.37-3.05 295.47-3.65L295.47-3.65Q296.07-7.15 296.07-9.75L296.07-9.75Q296.07-10.9 296.02-11.55L296.02-11.55 295.97-13.9Q295.97-15.1 295.37-16.23 294.77-17.35 293.97-17.35L293.97-17.35Q293.72-17.35 293.27-17.18 292.82-17 292.52-17L292.52-17Q292.02-17 291.44-17.5 290.87-18 290.87-18.55L290.87-18.55Q290.87-19.6 291.57-20.25L291.57-20.25Q292.32-20.85 293.04-21.2 293.77-21.55 294.72-21.55L294.72-21.55Q295.52-21.55 296.02-21.4 296.52-21.25 297.37-20.75L297.37-20.75Q297.82-20.5 298.42-19.65 299.02-18.8 299.42-17.25L299.42-17.25Q300.72-19.65 302.64-20.63 304.57-21.6 307.57-21.6L307.57-21.6Q308.72-21.6 310.04-20.85 311.37-20.1 312.32-19.1L312.32-19.1Q313.22-18 313.82-16.38 314.42-14.75 314.42-13.45L314.42-13.45Q314.42-12.7 314.32-11L314.32-11Q314.17-9.65 314.17-8.15L314.17-8.15Q314.17-4.65 315.52-3.85L315.52-3.85ZM323.52-32.1Q325.27-31.95 326.57-31.18 327.87-30.4 327.87-28.85L327.87-28.85Q327.87-27.7 326.79-27.03 325.72-26.35 324.22-26.35L324.22-26.35Q322.77-26.35 322.22-27.1 321.67-27.85 321.67-28.65L321.67-28.65Q321.67-30.15 321.99-31.15 322.32-32.15 323.52-32.1L323.52-32.1ZM327.52-18.95L327.52-9.95 327.52-8.5Q327.52-6.55 327.64-4.83 327.77-3.1 327.97-1.35L327.97-1.35Q327.92-0.85 327.22-0.33 326.52 0.2 325.97 0.2L325.97 0.2Q325.02 0.2 324.04-0.18 323.07-0.55 322.87-1.1L322.87-1.1Q322.57-2.7 322.57-3.95L322.57-3.95Q322.57-8.05 322.32-13.15L322.32-13.15Q322.12-17.65 322.12-19.45L322.12-19.45Q322.12-20.35 323.02-21 323.92-21.65 324.92-21.65L324.92-21.65Q326.37-21.65 326.94-21 327.52-20.35 327.52-18.95L327.52-18.95ZM351.51-16.7Q351.51-14.5 349.26-14.5L349.26-14.5Q348.51-14.5 348.01-14.85 347.51-15.2 346.91-15.9L346.91-15.9Q345.41-17.55 344.31-17.55L344.31-17.55Q342.86-17.55 341.49-16.7 340.11-15.85 339.26-14.3 338.41-12.75 338.41-10.85L338.41-10.85Q338.41-8.75 339.24-7.35 340.06-5.95 341.81-4.95L341.81-4.95Q342.46-4.6 343.34-4.4 344.21-4.2 344.86-4.2L344.86-4.2Q346.31-4.2 348.51-5.35L348.51-5.35Q349.31-5.75 349.86-5.95 350.41-6.15 351.01-6.15L351.01-6.15Q351.56-6.15 352.26-5.65 352.96-5.15 352.96-4.4L352.96-4.4Q352.96-2.9 351.56-1.88 350.16-0.85 348.14-0.33 346.11 0.2 344.26 0.2L344.26 0.2Q341.31 0.2 338.79-1.15 336.26-2.5 334.76-4.88 333.26-7.25 333.26-10.25L333.26-10.25Q333.26-13.45 334.71-16.1 336.16-18.75 338.61-20.25 341.06-21.75 343.96-21.75L343.96-21.75Q345.61-21.75 347.36-21.15 349.11-20.55 350.31-19.4 351.51-18.25 351.51-16.7L351.51-16.7ZM371.21-11.25Q371.61-11 372.79-10.33 373.96-9.65 374.36-8.75 374.76-7.85 374.76-6.25L374.76-6.25Q374.76-4.45 373.71-3.08 372.66-1.7 371.01-0.95L371.01-0.95Q369.81-0.4 368.09-0.1 366.36 0.2 365.36 0.2L365.36 0.2Q364.36 0.2 362.79-0.1 361.21-0.4 360.61-0.65L360.61-0.65Q359.06-1.55 357.94-2.85 356.81-4.15 356.81-5.5L356.81-5.5Q356.81-6.5 357.46-7.08 358.11-7.65 359.16-7.65L359.16-7.65Q359.66-7.65 360.21-7.28 360.76-6.9 360.96-6.5L360.96-6.5Q361.51-5.2 362.81-4.55 364.11-3.9 365.46-3.9L365.46-3.9Q367.21-3.9 368.71-4.48 370.21-5.05 370.21-6.05L370.21-6.05Q370.21-6.5 369.99-6.78 369.76-7.05 369.36-7.35L369.36-7.35Q368.66-7.85 367.26-8.18 365.86-8.5 365.46-8.6L365.46-8.6Q363.41-9.05 361.46-9.95L361.46-9.95Q359.51-10.9 358.36-12.2 357.21-13.5 357.21-15.55L357.21-15.55Q357.21-16.9 358.21-18.38 359.21-19.85 360.46-20.45L360.46-20.45Q361.36-20.8 363.49-21.2 365.61-21.6 366.36-21.6L366.36-21.6Q367.51-21.6 368.86-21.38 370.21-21.15 370.91-20.65L370.91-20.65Q372.26-19.85 373.11-18.98 373.96-18.1 373.96-17L373.96-17Q373.96-16.45 373.71-15.83 373.46-15.2 373.11-15.05L373.11-15.05Q372.36-14.7 371.36-14.7L371.36-14.7Q370.91-14.7 370.64-14.95 370.36-15.2 369.91-15.75L369.91-15.75Q369.36-16.6 368.86-16.75L368.86-16.75Q368.26-16.9 367.11-17.13 365.96-17.35 365.56-17.35L365.56-17.35Q364.41-17.35 363.19-16.7 361.96-16.05 361.96-15.2L361.96-15.2Q361.96-14.75 362.34-14.5 362.71-14.25 363.14-14.05 363.56-13.85 363.71-13.8L363.71-13.8Q364.76-13.3 366.04-12.95 367.31-12.6 367.61-12.5L367.61-12.5Q370.31-11.85 371.21-11.25L371.21-11.25Z" opacity="1" transform="matrix(1,0,0,1,0,0)" fill="#ffffff" class="wordmark-text-0" data-fill-palette-color="primary" id="text-0"></path></svg></g></svg></g><g transform="matrix(1,0,0,1,155.03299425033174,59.03039752718266)"><svg viewBox="0 0 240.48700574966824 35.81721362229102" height="35.81721362229102" width="240.48700574966824"><g transform="matrix(1,0,0,1,0,0)"><svg width="240.48700574966824" viewBox="-7.05 -29.6 326.61 48.650000000000006" height="35.81721362229102" data-palette-color="#f7f7ee"><path d="M17.65-10.4L17.65-10.4Q17.65-8.2 15.85-5.93 14.05-3.65 11.6-1.95L11.6-1.95Q9.35-0.5 7.03 0.3 4.7 1.1 3.53 1.1 2.35 1.1 1.6 0.85L1.6 0.85Q0.5 3.4-1.45 9.4L-1.45 9.4Q-1.65 10.05-1.68 11.03-1.7 12-2.27 13.68-2.85 15.35-3.4 16.35L-3.4 16.35Q-3.65 16.95-4.85 17.32-6.05 17.7-6.55 17.7-7.05 17.7-7.05 17.2L-7.05 17.2Q-7.05 17-6.9 16.65L-6.9 16.65Q-4.6 11.95-1.1 2.83 2.4-6.3 2.75-7.3 3.1-8.3 3.75-10.2L3.75-10.2Q4.85-13.4 4.95-15L4.95-15Q4.95-15.6 6.55-15.6 8.15-15.6 8.15-14.45L8.15-14.45Q8.15-13.6 7.18-12.08 6.2-10.55 4.3-6L4.3-6Q7.2-10.4 9-11.75L9-11.75Q11.4-13.7 13.65-13.7L13.65-13.7Q14.55-13.7 15.45-13.4L15.45-13.4Q17.4-12.7 17.6-11.15L17.6-11.15Q17.65-10.75 17.65-10.4ZM15.2-11.1L15.2-11.1Q15.2-12.85 13.85-12.85L13.85-12.85Q13.05-12.85 11.25-11.9 9.45-10.95 7.65-9.05 5.85-7.15 4.88-5.48 3.9-3.8 3.05-2.02 2.2-0.25 2.05 0.05L2.05 0.05Q5.1 0.05 8.75-2.6 12.4-5.25 14.2-8.35L14.2-8.35Q15.2-9.9 15.2-11.1ZM37.85-25.5L37.85-25.5Q38.45-26.6 38.45-27.2L38.45-27.2Q38.45-28.25 37.6-28.25L37.6-28.25Q36.9-28.25 35.85-27.45L35.85-27.45Q31.85-24.35 28.1-17.65L28.1-17.65Q25.1-12.25 23.7-8.4L23.7-8.4Q27.15-10.75 31.42-16.05 35.7-21.35 37.85-25.5ZM22.95-6.4L22.95-6.4Q22.35-4.7 22.3-4.13 22.25-3.55 22.25-2.58 22.25-1.6 22.75-0.8L22.75-0.8Q23.6 0.55 25.6-0.6L25.6-0.6Q27.1-1.4 29.4-3.53 31.7-5.65 32.95-7.4L32.95-7.4Q33.05-7.55 33.25-7.55L33.25-7.55Q33.7-7.55 33.5-6.9L33.5-6.9Q32.75-5.55 30.72-3.45 28.7-1.35 27.05-0.13 25.4 1.1 23.75 1.1L23.75 1.1Q19.95 1.1 19.95-2.6L19.95-2.6Q19.95-2.75 19.95-2.9L19.95-2.9Q20.15-6.4 23.5-13.48 26.85-20.55 29.55-24.15L29.55-24.15 31.1-26.1Q31.65-26.75 32.7-27.7L32.7-27.7Q34.7-29.6 36.82-29.6 38.95-29.6 39.7-28.3L39.7-28.3Q39.95-27.85 39.95-27 39.95-26.15 39.2-24.6L39.2-24.6Q34.05-15.65 22.95-6.4ZM55.74-7Q54.99-5.65 53.05-3.55 51.09-1.45 49.55-0.3L49.55-0.3Q47.55 1.15 45.2 1.15L45.2 1.15Q44.74 1.15 44.02 0.73 43.3 0.3 43.05-0.5 42.8-1.3 42.8-2.05L42.8-2.05Q42.8-4.65 43.8-7.2L43.8-7.2Q43.64-7.1 42.42-5.08 41.2-3.05 39.42-1.25 37.64 0.55 35.84 0.55L35.84 0.55Q34.99 0.55 33.89 0.1L33.89 0.1Q31.89-0.8 31.89-3.2L31.89-3.2Q31.89-6.15 33.92-9.28 35.95-12.4 36.49-12.6L36.49-12.6Q37.24-12.8 37.92-12.8 38.59-12.8 39.3-12.53 39.99-12.25 39.09-11.6L39.09-11.6Q35.64-8.45 34.2-4.6L34.2-4.6Q33.64-3.1 33.64-2.08 33.64-1.05 34.17-0.75 34.7-0.45 35.2-0.45L35.2-0.45Q36.39-0.45 38.47-2.13 40.55-3.8 44.2-9.1L44.2-9.1Q44.7-9.85 45.95-12.03 47.19-14.2 47.44-14.6L47.44-14.6Q48.24-14.6 49.32-14.23 50.39-13.85 50.05-13.25L50.05-13.25Q47.64-9.25 46.67-7.35 45.7-5.45 45.34-2.9L45.34-2.9Q45.3-2.45 45.3-1.75 45.3-1.05 45.7-0.6L45.7-0.6Q46.44 0.2 47.77-0.53 49.09-1.25 51.39-3.33 53.7-5.4 55.09-7.4L55.09-7.4Q55.3-7.65 55.57-7.53 55.84-7.4 55.84-7.28 55.84-7.15 55.74-7L55.74-7ZM53.14 19.05L53.14 19.05Q52.74 19.05 52.14 18.9L52.14 18.9Q49.59 18.25 49.59 16.23 49.59 14.2 52.22 11.15 54.84 8.1 63.29 2.5L63.29 2.5Q66.89-4.85 68.29-9.15L68.29-9.15Q65.49-5.75 64.29-4.45L64.29-4.45Q59.79 0.55 57.04 0.55L57.04 0.55Q56.24 0.55 55.32 0.08 54.39-0.4 53.74-1.28 53.09-2.15 53.09-3.15L53.09-3.15Q53.09-5.8 56.79-9.1L56.79-9.1Q58.99-11.1 61.39-12.5 63.79-13.9 65.19-14.25 66.59-14.6 67.89-14.6 69.19-14.6 70.19-13.9 71.19-13.2 71.19-12.5L71.19-12.5Q71.19-12.1 70.79-12.25L70.79-12.25Q70.24-13.2 68.37-13.2 66.49-13.2 64.12-11.98 61.74-10.75 59.84-9.08 57.94-7.4 56.62-5.28 55.29-3.15 55.29-2.15L55.29-2.15Q55.29-0.4 56.29-0.4L56.29-0.4Q57.69-0.4 60.59-2.7L60.59-2.7Q64.89-6.05 68.84-10.85L68.84-10.85Q69.49-11.8 71.54-10.8L71.54-10.8Q72.34-10.4 72.19-10.1L72.19-10.1Q71.54-8.65 69.82-5.08 68.09-1.5 67.24 0.3L67.24 0.3Q68.39-0.3 71.17-2.73 73.94-5.15 76.04-7.6L76.04-7.6Q77.14-8.9 77.14-8L77.14-8Q77.14-6.75 71.14-1.4L71.14-1.4Q67.69 1.7 66.24 2.5L66.24 2.5Q61.99 11.25 60.54 13.5L60.54 13.5Q56.79 19.05 53.14 19.05ZM62.34 4.4L62.34 4.4Q56.34 8.9 53.74 11.53 51.14 14.15 51.14 16.45L51.14 16.45Q51.14 17.15 51.59 17.45 52.04 17.75 52.54 17.75 53.04 17.75 53.99 17 54.94 16.25 55.62 15.53 56.29 14.8 56.79 14.18 57.29 13.55 57.92 12.58 58.54 11.6 58.89 11.05 59.24 10.5 59.87 9.33 60.49 8.15 60.72 7.73 60.94 7.3 61.57 6 62.19 4.7 62.34 4.4ZM91.04-13.85L91.04-13.85Q92.29-13.85 92.54-13.05L92.54-13.05Q92.64-12.6 92.41-12.18 92.19-11.75 92.09-11.5 91.99-11.25 91.94-11.1L91.94-11.1Q91.69-10.6 91.44-10.15L91.44-10.15Q88.59-4.45 88.44-2.9L88.44-2.9Q88.39-2.45 88.39-1.75 88.39-1.05 88.79-0.6L88.79-0.6Q89.49 0.2 90.79-0.5 92.09-1.2 94.41-3.3 96.74-5.4 98.19-7.4L98.19-7.4Q98.39-7.65 98.64-7.53 98.89-7.4 98.89-7.28 98.89-7.15 98.79-7L98.79-7Q98.04-5.65 96.09-3.55L96.09-3.55Q92.89-0.1 90.74 0.7L90.74 0.7Q89.49 1.15 88.64 1.15L88.64 1.15Q86.64 1.15 85.99-0.75L85.99-0.75Q85.89-1.1 85.89-1.6L85.89-1.6Q85.89-3.35 87.49-6.9L87.49-6.9Q87.24-6.35 85.54-4.4L85.54-4.4Q85.09-3.9 84.84-4.4L84.84-4.4Q84.79-4.5 84.79-4.67 84.79-4.85 84.99-5.1L84.99-5.1Q87.44-8.15 88.84-10.25L88.84-10.25Q88.74-10.5 88.94-10.9L88.94-10.9Q89.94-13.7 90.69-13.85L90.69-13.85Q90.84-13.85 91.04-13.85ZM94.99-20.5L94.99-20.5 94.59-18.9Q94.59-18.45 93.94-17.45 93.29-16.45 92.94-16.45L92.94-16.45Q90.79-16.45 90.79-17.5L90.79-17.5Q90.79-17.7 92.94-19.35L92.94-19.35 93.79-20Q94.59-20.7 94.79-20.7 94.99-20.7 94.99-20.5ZM111.44-14.2L111.44-14.2Q112.59-14.2 112.59-12.98 112.59-11.75 111.44-9.6 110.29-7.45 109.74-6.1L109.74-6.1Q108.79-3.8 108.79-2.43 108.79-1.05 109.19-0.6L109.19-0.6Q109.94 0.2 111.24-0.53 112.54-1.25 114.86-3.33 117.19-5.4 118.59-7.4L118.59-7.4Q118.79-7.65 119.06-7.53 119.34-7.4 119.34-7.28 119.34-7.15 119.24-7L119.24-7Q118.49-5.65 116.54-3.55 114.59-1.45 112.79-0.18 110.99 1.1 109.24 1.1L109.24 1.1Q107.54 1.05 106.84 0.33 106.14-0.4 106.14-1.5 106.14-2.6 106.34-3.63 106.54-4.65 107.09-6L107.09-6Q107.99-8.15 108.66-9.35 109.34-10.55 109.34-10.93 109.34-11.3 108.94-11.3L108.94-11.3Q108.14-11.3 105.89-9.35L105.89-9.35Q104.34-7.9 101.31-3.88 98.29 0.15 97.89 0.4L97.89 0.4Q96.09 1.3 95.64 1.3 95.19 1.3 95.19 1.15 95.19 1 95.29 0.73 95.39 0.45 96.26-2 97.14-4.45 98.16-7.38 99.19-10.3 99.41-10.9 99.64-11.5 99.71-11.93 99.79-12.35 99.89-12.65 99.99-12.95 100.26-13.33 100.54-13.7 100.99-13.73 101.44-13.75 102.14-13.63 102.84-13.5 102.84-13L102.84-13Q102.84-12.65 102.29-11.48 101.74-10.3 99.14-3.4L99.14-3.4Q100.94-5.6 103.69-8.47 106.44-11.35 108.34-12.85L108.34-12.85Q110.24-14.2 111.44-14.2ZM125.33-13.95L125.98-14Q129.83-14.35 130.66-14.35 131.48-14.35 131.48-14.1L131.48-14.1Q131.48-13.8 130.31-13.48 129.13-13.15 124.58-12.65L124.58-12.65Q124.33-12.2 123.98-11.6L123.98-11.6Q123.23-10.4 123.18-10.15L123.18-10.15Q120.33-4.45 120.18-2.9L120.18-2.9Q120.13-2.45 120.13-1.75 120.13-1.05 120.53-0.6L120.53-0.6Q121.23 0.2 122.53-0.5 123.83-1.2 126.16-3.3 128.48-5.4 129.93-7.4L129.93-7.4Q130.13-7.65 130.43-7.5L130.43-7.5Q131.18-7.15 127.83-3.55L127.83-3.55Q124.63-0.1 122.48 0.7L122.48 0.7Q121.23 1.15 120.38 1.15L120.38 1.15Q118.38 1.15 117.73-0.75L117.73-0.75Q117.63-1.1 117.63-1.6L117.63-1.6Q117.63-3.35 119.23-6.9L119.23-6.9Q118.98-6.35 117.28-4.4L117.28-4.4Q116.83-3.9 116.58-4.4L116.58-4.4Q116.53-4.5 116.53-4.67 116.53-4.85 116.73-5.1L116.73-5.1Q119.18-8.15 120.58-10.25L120.58-10.25Q120.58-10.3 121.68-12.35L121.68-12.35Q121.18-12.25 120.66-12.25 120.13-12.25 119.88-12.58 119.63-12.9 119.83-13.35L119.83-13.35Q120.18-14.15 122.48-14.25L122.48-14.25Q122.53-14.35 122.68-14.35L122.68-14.35 125.18-19Q125.38-19.4 125.63-19.83 125.88-20.25 126.01-20.48 126.13-20.7 126.28-20.95 126.43-21.2 126.53-21.3 126.63-21.4 126.73-21.5L126.73-21.5Q126.93-21.8 127.91-21.8 128.88-21.8 129.23-21.25L129.23-21.25Q129.38-21.05 129.38-20.58 129.38-20.1 129.03-19.53 128.68-18.95 128.28-18.7 127.88-18.45 127.73-18.15L127.73-18.15 125.33-13.95ZM139.63-5.5L139.63-5.5Q140.53-7.35 140.53-8.35 140.53-9.35 140.31-9.93 140.08-10.5 140.51-10.9 140.93-11.3 141.58-11.2L141.58-11.2Q142.58-10.95 142.58-8.95 142.58-6.95 140.23-3.7L140.23-3.7Q140.28-2.35 141.63-2.35 142.98-2.35 145.73-5.25L145.73-5.25Q147.03-6.75 147.36-7.2 147.68-7.65 147.93-7.53 148.18-7.4 148.18-7.3L148.18-7.3Q148.18-6.8 146.38-4.7L146.38-4.7Q143.53-1.2 141.33-1.2L141.33-1.2Q139.88-1.2 139.28-2.45L139.28-2.45Q138.28-1.4 137.33-0.5L137.33-0.5Q135.38 1.15 132.98 1.15L132.98 1.15Q131.63 1.15 130.73 0.5L130.73 0.5Q128.98-0.55 128.98-3.25L128.98-3.25Q128.98-6.2 130.98-9.25L130.98-9.25Q132.13-11.05 133.68-12.4L133.68-12.4Q136.13-14.55 138.33-14.55L138.33-14.55Q138.88-14.55 139.38-14.4L139.38-14.4Q140.88-13.9 140.88-12.5L140.88-12.5Q140.88-11.35 140.28-11.35L140.28-11.35Q140.03-11.45 140.03-12.1L140.03-12.1Q140.03-13 139.03-13L139.03-13Q137.28-13 134.53-9.8 131.78-6.6 131.23-3.35L131.23-3.35Q131.13-2.8 131.13-2.13 131.13-1.45 131.58-0.58 132.03 0.3 133.26 0.3 134.48 0.3 135.93-0.8 137.38-1.9 138.53-3.6L138.53-3.6 138.38-3.9Q138.18-4.7 138.58-5.2 138.98-5.7 139.63-5.5ZM174.93-29.25L174.93-29.25Q175.83-29.6 176.48-29.6L176.48-29.6Q178.68-29.6 179.38-28.4L179.38-28.4Q179.78-27.8 179.78-27.35L179.78-27.35Q179.78-23.95 174.08-18.8L174.08-18.8Q169.03-14.35 164.78-11.15L164.78-11.15Q163.38-8 161.88-3.4L161.88-3.4Q163.68-5.6 166.43-8.5L166.43-8.5Q171.97-14.25 174.18-14.25L174.18-14.25Q175.28-14.25 175.33-13.15L175.33-13.15Q175.43-12 174.85-10.95 174.28-9.9 173.78-9L173.78-9Q171.43-5.1 171.43-2.05L171.43-2.05Q171.43-1.05 171.83-0.6L171.83-0.6Q172.53 0.2 173.83-0.5 175.13-1.2 177.45-3.3 179.78-5.4 181.23-7.4L181.23-7.4Q181.48-7.65 181.7-7.53 181.93-7.4 181.93-7.28 181.93-7.15 181.83-7L181.83-7Q181.08-5.65 179.13-3.58 177.18-1.5 175.98-0.6L175.98-0.6Q173.68 1.15 171.58 1.15L171.58 1.15Q169.68 1.15 169.03-0.75L169.03-0.75Q168.88-1.2 168.88-1.83 168.88-2.45 168.97-3.15L168.97-3.15Q169.22-5.25 171.63-9.7L171.63-9.7Q172.13-10.6 172.13-10.98 172.13-11.35 171.72-11.35L171.72-11.35Q170.93-11.35 168.63-9.35L168.63-9.35Q167.08-7.9 164.05-3.88 161.03 0.15 160.63 0.4L160.63 0.4Q158.83 1.3 158.4 1.3 157.97 1.3 157.93 1.18 157.88 1.05 157.97 0.85 158.08 0.65 158.78-1.35L158.78-1.35Q161.13-8 161.97-10.15L161.97-10.15Q160.33-8.05 157.88-5.4L157.88-5.4Q157.47-5 157.47-5.58 157.47-6.15 157.93-6.75 158.38-7.35 159.8-9.08 161.22-10.8 161.83-11.65L161.83-11.65Q161.38-11.9 161.35-12.35 161.33-12.8 161.65-12.98 161.97-13.15 162.72-12.85L162.72-12.85Q163.22-13.55 163.63-14.4L163.63-14.4Q169.58-27.2 174.93-29.25ZM177.73-25.5L177.73-25.5Q178.38-26.7 178.38-27.53 178.38-28.35 177.65-28.35 176.93-28.35 175.73-27.45L175.73-27.45Q170.22-23.25 165.78-13.4L165.78-13.4Q169.03-15.5 172.58-19 176.13-22.5 177.73-25.5ZM183.07 0.55L183.07 0.55Q182.27 0.55 181.35 0.08 180.42-0.4 179.77-1.28 179.12-2.15 179.12-3.15 179.12-4.15 179.57-5.05L179.57-5.05Q180.57-7.15 182.8-9.13 185.02-11.1 187.42-12.5 189.82-13.9 191.22-14.25 192.62-14.6 193.95-14.6 195.27-14.6 196.22-13.93 197.17-13.25 197.17-12.5L197.17-12.5Q197.17-12.25 197.12-12.2 197.07-12.15 196.87-12.25L196.87-12.25Q196.27-13.2 194.4-13.2 192.52-13.2 190.15-11.98 187.77-10.75 185.67-8.9L185.67-8.9Q183.92-7.25 182.6-5.18 181.27-3.1 181.27-2.15L181.27-2.15Q181.27-0.3 182.32-0.3 183.37-0.3 185.52-2L185.52-2Q189.07-5 190.37-6.4L190.37-6.4Q194.97-11.35 195.32-11.35L195.32-11.35Q195.92-11.35 196.77-11 197.62-10.65 197.32-10.15L197.32-10.15Q194.77-6.55 194.32-2.9L194.32-2.9Q194.27-2.45 194.27-1.75 194.27-1.05 194.67-0.6L194.67-0.6Q195.42 0.2 196.72-0.5 198.02-1.2 200.35-3.3 202.67-5.4 204.07-7.4L204.07-7.4Q204.27-7.65 204.52-7.53 204.77-7.4 204.77-7.3L204.77-7.3Q204.77-6.55 202.4-4.03 200.02-1.5 198.77-0.6L198.77-0.6Q196.42 1.15 194.42 1.15L194.42 1.15Q192.52 1.15 191.87-0.75L191.87-0.75Q191.72-1.35 191.72-2.1L191.72-2.1Q191.72-4.35 192.67-6.85L192.67-6.85Q192.47-6.75 190.82-4.85 189.17-2.95 187-1.2 184.82 0.55 183.07 0.55ZM219.07-10.4L219.07-10.4Q219.07-8.2 217.27-5.93 215.47-3.65 213.02-1.95L213.02-1.95Q210.77-0.5 208.45 0.3 206.12 1.1 204.95 1.1 203.77 1.1 203.02 0.85L203.02 0.85Q201.92 3.4 199.97 9.4L199.97 9.4Q199.77 10.05 199.75 11.03 199.72 12 199.15 13.68 198.57 15.35 198.02 16.35L198.02 16.35Q197.77 16.95 196.57 17.32 195.37 17.7 194.87 17.7 194.37 17.7 194.37 17.2L194.37 17.2Q194.37 17 194.52 16.65L194.52 16.65Q196.82 11.95 200.32 2.83 203.82-6.3 204.17-7.3 204.52-8.3 205.17-10.2L205.17-10.2Q206.27-13.4 206.37-15L206.37-15Q206.37-15.6 207.97-15.6 209.57-15.6 209.57-14.45L209.57-14.45Q209.57-13.6 208.6-12.08 207.62-10.55 205.72-6L205.72-6Q208.62-10.4 210.42-11.75L210.42-11.75Q212.82-13.7 215.07-13.7L215.07-13.7Q215.97-13.7 216.87-13.4L216.87-13.4Q218.82-12.7 219.02-11.15L219.02-11.15Q219.07-10.75 219.07-10.4ZM216.62-11.1L216.62-11.1Q216.62-12.85 215.27-12.85L215.27-12.85Q214.47-12.85 212.67-11.9 210.87-10.95 209.07-9.05 207.27-7.15 206.3-5.48 205.32-3.8 204.47-2.02 203.62-0.25 203.47 0.05L203.47 0.05Q206.52 0.05 210.17-2.6 213.82-5.25 215.62-8.35L215.62-8.35Q216.62-9.9 216.62-11.1ZM237.57-10.4L237.57-10.4Q237.57-8.2 235.77-5.93 233.97-3.65 231.52-1.95L231.52-1.95Q229.27-0.5 226.94 0.3 224.62 1.1 223.44 1.1 222.27 1.1 221.52 0.85L221.52 0.85Q220.42 3.4 218.47 9.4L218.47 9.4Q218.27 10.05 218.24 11.03 218.22 12 217.64 13.68 217.07 15.35 216.52 16.35L216.52 16.35Q216.27 16.95 215.07 17.32 213.87 17.7 213.37 17.7 212.87 17.7 212.87 17.2L212.87 17.2Q212.87 17 213.02 16.65L213.02 16.65Q215.32 11.95 218.82 2.83 222.32-6.3 222.67-7.3 223.02-8.3 223.67-10.2L223.67-10.2Q224.77-13.4 224.87-15L224.87-15Q224.87-15.6 226.47-15.6 228.07-15.6 228.07-14.45L228.07-14.45Q228.07-13.6 227.09-12.08 226.12-10.55 224.22-6L224.22-6Q227.12-10.4 228.92-11.75L228.92-11.75Q231.32-13.7 233.57-13.7L233.57-13.7Q234.47-13.7 235.37-13.4L235.37-13.4Q237.32-12.7 237.52-11.15L237.52-11.15Q237.57-10.75 237.57-10.4ZM235.12-11.1L235.12-11.1Q235.12-12.85 233.77-12.85L233.77-12.85Q232.97-12.85 231.17-11.9 229.37-10.95 227.57-9.05 225.77-7.15 224.79-5.48 223.82-3.8 222.97-2.02 222.12-0.25 221.97 0.05L221.97 0.05Q225.02 0.05 228.67-2.6 232.32-5.25 234.12-8.35L234.12-8.35Q235.12-9.9 235.12-11.1ZM245.22-13.85L245.22-13.85Q246.47-13.85 246.72-13.05L246.72-13.05Q246.82-12.6 246.59-12.18 246.37-11.75 246.27-11.5 246.17-11.25 246.12-11.1L246.12-11.1Q245.87-10.6 245.62-10.15L245.62-10.15Q242.77-4.45 242.62-2.9L242.62-2.9Q242.57-2.45 242.57-1.75 242.57-1.05 242.97-0.6L242.97-0.6Q243.67 0.2 244.97-0.5 246.27-1.2 248.59-3.3 250.92-5.4 252.37-7.4L252.37-7.4Q252.57-7.65 252.82-7.53 253.07-7.4 253.07-7.28 253.07-7.15 252.97-7L252.97-7Q252.22-5.65 250.27-3.55L250.27-3.55Q247.07-0.1 244.92 0.7L244.92 0.7Q243.67 1.15 242.82 1.15L242.82 1.15Q240.82 1.15 240.17-0.75L240.17-0.75Q240.07-1.1 240.07-1.6L240.07-1.6Q240.07-3.35 241.67-6.9L241.67-6.9Q241.42-6.35 239.72-4.4L239.72-4.4Q239.27-3.9 239.02-4.4L239.02-4.4Q238.97-4.5 238.97-4.67 238.97-4.85 239.17-5.1L239.17-5.1Q241.62-8.15 243.02-10.25L243.02-10.25Q242.92-10.5 243.12-10.9L243.12-10.9Q244.12-13.7 244.87-13.85L244.87-13.85Q245.02-13.85 245.22-13.85ZM249.17-20.5L249.17-20.5 248.77-18.9Q248.77-18.45 248.12-17.45 247.47-16.45 247.12-16.45L247.12-16.45Q244.97-16.45 244.97-17.5L244.97-17.5Q244.97-17.7 247.12-19.35L247.12-19.35 247.97-20Q248.77-20.7 248.97-20.7 249.17-20.7 249.17-20.5ZM265.61-14.2L265.61-14.2Q266.76-14.2 266.76-12.98 266.76-11.75 265.61-9.6 264.46-7.45 263.91-6.1L263.91-6.1Q262.96-3.8 262.96-2.43 262.96-1.05 263.36-0.6L263.36-0.6Q264.11 0.2 265.41-0.53 266.71-1.25 269.04-3.33 271.36-5.4 272.76-7.4L272.76-7.4Q272.96-7.65 273.24-7.53 273.51-7.4 273.51-7.28 273.51-7.15 273.41-7L273.41-7Q272.66-5.65 270.71-3.55 268.76-1.45 266.96-0.18 265.16 1.1 263.41 1.1L263.41 1.1Q261.71 1.05 261.01 0.33 260.31-0.4 260.31-1.5 260.31-2.6 260.51-3.63 260.71-4.65 261.26-6L261.26-6Q262.16-8.15 262.84-9.35 263.51-10.55 263.51-10.93 263.51-11.3 263.11-11.3L263.11-11.3Q262.31-11.3 260.06-9.35L260.06-9.35Q258.51-7.9 255.49-3.88 252.46 0.15 252.06 0.4L252.06 0.4Q250.26 1.3 249.81 1.3 249.36 1.3 249.36 1.15 249.36 1 249.46 0.73 249.56 0.45 250.44-2 251.31-4.45 252.34-7.38 253.36-10.3 253.59-10.9 253.81-11.5 253.89-11.93 253.96-12.35 254.06-12.65 254.16-12.95 254.44-13.33 254.71-13.7 255.16-13.73 255.61-13.75 256.31-13.63 257.01-13.5 257.01-13L257.01-13Q257.01-12.65 256.46-11.48 255.91-10.3 253.31-3.4L253.31-3.4Q255.11-5.6 257.86-8.47 260.61-11.35 262.51-12.85L262.51-12.85Q264.41-14.2 265.61-14.2ZM283.71-14.55L283.71-14.55Q286.41-14.55 286.41-11.95L286.41-11.95Q286.41-10.6 285.66-9.75L285.66-9.75Q284.41-7.9 281.61-6.53 278.81-5.15 276.86-5L276.86-5Q276.16-4.95 276.11-5.4L276.11-5.4Q276.06-5.6 276.24-5.65 276.41-5.7 276.51-5.7L276.51-5.7Q277.66-5.8 279.46-6.8L279.46-6.8Q282.81-8.6 284.36-10.5L284.36-10.5Q285.01-11.4 285.01-12.23 285.01-13.05 284.21-13.05L284.21-13.05Q283.56-13.05 282.46-12.5L282.46-12.5Q280.11-11.4 277.51-8.68 274.91-5.95 274.11-3.35L274.11-3.35Q273.86-2.55 273.86-1.78 273.86-1 274.51-0.3 275.16 0.4 276.51 0.4L276.51 0.4Q278.01 0.4 279.96-0.4L279.96-0.4Q285.61-2.7 288.66-7.35L288.66-7.35Q288.96-7.75 289.21-7.5L289.21-7.5Q289.41-7.4 289.41-7.25 289.41-7.1 289.26-6.9L289.26-6.9Q287.76-4.4 285.46-2.45L285.46-2.45Q281.01 1.35 276.81 1.35L276.81 1.35Q273.21 1.35 271.76-0.8L271.76-0.8Q271.21-1.65 271.21-2.85 271.21-4.05 271.86-5.7L271.86-5.7Q273.11-8.55 277.21-11.55 281.31-14.55 283.71-14.55ZM288.61 0.5L288.61 0.5Q287.96 1.25 288.33 1.7 288.71 2.15 289.18 2.15 289.66 2.15 290.16 2L290.16 2Q292.31 1.35 294.33-0.58 296.36-2.5 296.36-4.5L296.36-4.5Q296.36-5.6 293.91-6.9L293.91-6.9Q292.76-7.5 292.61-7.6L292.61-7.6Q291.26-8.5 290.91-9.4L290.91-9.4Q290.21-8.2 288.66-5.95L288.66-5.95Q288.31-5.55 288.01-5.78 287.71-6 287.96-6.4L287.96-6.4Q290.01-9.2 290.66-11.1L290.66-11.1Q291.01-13.85 294.66-16.05 298.31-18.25 301.31-18.25L301.31-18.25Q303.21-18.25 303.98-17.57 304.76-16.9 304.76-16.25 304.76-15.6 304.38-14.75 304.01-13.9 302.86-13.15L302.86-13.15Q302.56-12.95 302.36-13.25L302.36-13.25Q302.26-13.55 302.78-14.08 303.31-14.6 303.46-15.5 303.61-16.4 302.66-16.6L302.66-16.6Q302.51-16.6 302.36-16.6L302.36-16.6Q300.41-16.6 297.48-15.15 294.56-13.7 292.91-11.4L292.91-11.4Q292.26-10.55 292.26-9.68 292.26-8.8 293.46-8.1L293.46-8.1Q293.96-7.8 295.16-7.15 296.36-6.5 296.86-6.2 297.36-5.9 298.06-5.25 298.76-4.6 298.81-4.05L298.81-4.05Q299.06-2.55 297.41-0.75L297.41-0.75Q295.06 1.85 290.41 2.9L290.41 2.9Q289.36 3.15 288.28 3.15 287.21 3.15 286.81 2.35L286.81 2.35Q286.66 2.15 286.66 1.73 286.66 1.3 287.46 0.35L287.46 0.35Q288.21-0.4 289.86-1.1L289.86-1.1Q290.01-1.15 290.11-1.05 290.21-0.95 290.16-0.8 290.11-0.65 289.63-0.45 289.16-0.25 288.61 0.5ZM303.41 0.5L303.41 0.5Q302.76 1.25 303.13 1.7 303.51 2.15 303.98 2.15 304.46 2.15 304.96 2L304.96 2Q307.11 1.35 309.13-0.58 311.16-2.5 311.16-4.5L311.16-4.5Q311.16-5.6 308.71-6.9L308.71-6.9Q307.56-7.5 307.41-7.6L307.41-7.6Q306.06-8.5 305.71-9.4L305.71-9.4Q305.01-8.2 303.46-5.95L303.46-5.95Q303.11-5.55 302.81-5.78 302.51-6 302.76-6.4L302.76-6.4Q304.81-9.2 305.46-11.1L305.46-11.1Q305.81-13.85 309.46-16.05 313.11-18.25 316.11-18.25L316.11-18.25Q318.01-18.25 318.78-17.57 319.56-16.9 319.56-16.25 319.56-15.6 319.18-14.75 318.81-13.9 317.66-13.15L317.66-13.15Q317.36-12.95 317.16-13.25L317.16-13.25Q317.06-13.55 317.58-14.08 318.11-14.6 318.26-15.5 318.41-16.4 317.46-16.6L317.46-16.6Q317.31-16.6 317.16-16.6L317.16-16.6Q315.21-16.6 312.28-15.15 309.36-13.7 307.71-11.4L307.71-11.4Q307.06-10.55 307.06-9.68 307.06-8.8 308.26-8.1L308.26-8.1Q308.76-7.8 309.96-7.15 311.16-6.5 311.66-6.2 312.16-5.9 312.86-5.25 313.56-4.6 313.61-4.05L313.61-4.05Q313.86-2.55 312.21-0.75L312.21-0.75Q309.86 1.85 305.21 2.9L305.21 2.9Q304.16 3.15 303.08 3.15 302.01 3.15 301.61 2.35L301.61 2.35Q301.46 2.15 301.46 1.73 301.46 1.3 302.26 0.35L302.26 0.35Q303.01-0.4 304.66-1.1L304.66-1.1Q304.81-1.15 304.91-1.05 305.01-0.95 304.96-0.8 304.91-0.65 304.43-0.45 303.96-0.25 303.41 0.5Z" opacity="1" transform="matrix(1,0,0,1,0,0)" fill="#ffffff" class="slogan-text-1" data-fill-palette-color="secondary" id="text-1"></path></svg></g></svg></g></svg></g></svg></g><g><svg viewBox="0 0 244.43135999999998 244.43135999999998" height="244.43135999999998" width="244.43135999999998"><g><svg viewBox="0 0 244.43135999999998 244.43135999999998" height="244.43135999999998" width="244.43135999999998"><g transform="matrix(1,0,0,1,64.61504213014285,64.60265593644993)"><svg viewBox="0 0 115.20127573971428 115.22604812710013" height="115.22604812710013" width="115.20127573971428"><g><svg xmlns="http://www.w3.org/2000/svg" xmlns:xlink="http://www.w3.org/1999/xlink" version="1.1" x="0" y="0" viewBox="6.690242120899824 6.690642080658404 86.6267300794872 86.64535791934158" enable-background="new 0 0 100 100" xml:space="preserve" height="115.22604812710013" width="115.20127573971428" class="icon-cg-0" data-fill-palette-color="accent" id="cg-0"><g fill="#f7f7ee" data-fill-palette-color="accent"><path d="M86.732 27.036C74.071 6.782 47.293 0.605 27.037 13.266 6.782 25.927 0.604 52.707 13.266 72.963c6.133 9.812 15.721 16.647 26.996 19.249 3.263 0.752 6.553 1.124 9.82 1.124 8.024 0 15.907-2.244 22.88-6.603 5.863-3.666 10.811-8.727 14.307-14.634 0.281-0.476 0.124-1.089-0.351-1.37-0.478-0.282-1.09-0.124-1.37 0.351-3.382 5.714-7.973 10.41-13.646 13.958-2.79 1.744-5.735 3.124-8.776 4.149v-19.57c0-3.473-9.5-3.473-9.5 0v21.552c-4.27 0.372-8.617 0.085-12.914-0.906-10.755-2.48-19.899-9.001-25.75-18.36-4.026-6.441-6.045-13.574-6.245-20.67 0.067 0.091 0.136 0.182 0.226 0.265 1.228 1.134 3.723 1.392 5.111 1.446 0.504 5.789 1.69 14.05 4.479 19.493l0.167 0.327 0.34 0.141c0.138 0.058 1.06 0.43 2.629 0.873v4.266h4.354v-3.295c2.287 0.392 5.051 0.691 8.202 0.691 2.714 0 5.714-0.229 8.917-0.802v3.405h4.354v-4.377c0.824-0.223 1.655-0.461 2.5-0.733l0.358-0.116 0.193-0.323c0.158-0.265 3.401-5.87 4.106-19.539 1.298-0.029 4.085-0.238 5.406-1.457 0.453-0.419 0.622-0.966 0.462-1.501-0.121-0.404-0.495-1.618-5.735-2.536 0-0.407 0-0.814-0.005-1.232h-0.018c0-0.073 0.009-0.144-0.009-0.218-0.521-2.21-2.21-3.271-2.281-3.315-0.024-0.015-0.054-0.018-0.079-0.031-1.897-2.538-5.929-4.503-11.215-5.46-1.408-2.103-3.803-3.49-6.517-3.49-2.642 0-4.978 1.317-6.399 3.326-5.747 0.877-10.322 3.003-12.284 5.731-0.001 0.001-0.001 0.004-0.002 0.005-2.237 1.5-2.326 3.042-2.293 3.503 0.002 0.134 0.01 0.578 0.034 1.27-3.49 0.663-4.617 1.455-5.013 1.986 0.096-7.491 2.218-14.873 6.175-21.286 0.355 0.947 1.461 3.696 2.755 4.99l0.292 0.293h46.994l0.293-0.292c1.49-1.488 2.729-4.902 2.864-5.287l0.067-0.19-0.716-12.421L64.97 12.45H32.778c18.587-8.54 41.134-2.149 52.259 15.646 2.058 3.291 3.609 6.824 4.661 10.483l-7.142-0.583c-0.096-2.459-1.983-4.538-4.5-4.771l-3.784-0.351c-1.333-0.126-2.621 0.278-3.646 1.129-0.902 0.75-1.477 1.776-1.69 2.915-2.943 0.086-4.195 3.05-4.271 3.245-0.148 0.468-3.661 11.495-4.271 15.277-0.26 1.61-0.026 2.919 0.692 3.89 0.862 1.162 2.082 1.359 2.219 1.378l0.12 0.009c0.027 0 0.491 0.007 1.28 0.018 0.371 1.738 1.915 3.047 3.762 3.047h0.352v2.956c-2.142 0.461-3.754 2.366-3.754 4.644v4.053c0 2.622 2.133 4.756 4.754 4.756s4.754-2.134 4.754-4.756v-4.053c0-2.277-1.612-4.183-3.754-4.644v-2.956h0.602c1.803 0 3.309-1.25 3.726-2.927 4.387 0.042 9.339 0.077 13.611 0.077 0.371 0 0.716-0.001 1.075-0.002-0.083 0.305-0.155 0.611-0.246 0.914-0.158 0.529 0.143 1.086 0.672 1.244 0.529 0.154 1.085-0.144 1.244-0.672C95.067 50.484 93.329 37.589 86.732 27.036zM58.375 68.972c1.462 0 2.39 0.399 2.683 0.646-0.294 0.245-1.222 0.645-2.683 0.645s-2.389-0.399-2.683-0.645C55.985 69.371 56.913 68.972 58.375 68.972zM55.625 71.798c0.813 0.302 1.779 0.464 2.75 0.464s1.938-0.162 2.75-0.464v18.008c-1.807 0.508-3.645 0.886-5.5 1.14V71.798zM15.719 47.452c1.131 0.215 2.26 0.414 3.386 0.593 0.086 3.222 0.589 14.859 3.407 23.868-1.137-0.304-1.948-0.577-2.37-0.729C16.616 63.954 15.87 51.398 15.719 47.452zM16.866 44.591c1.798 0.251 9.496 1.247 18.648 1.247 5.955 0 11.395-0.415 16.176-1.232 0.216 0.19 0.52 0.509 0.77 0.961-2.256 0.573-8.188 1.826-16.917 1.826-6.32 0-12.902-0.646-19.582-1.923C16.134 45.223 16.415 44.921 16.866 44.591zM24.795 72.451c-2.931-8.475-3.553-20.377-3.678-24.106 0.473 0.066 0.947 0.138 1.418 0.198 0.109 3.498 0.707 16.535 3.64 24.168C25.693 72.628 25.23 72.541 24.795 72.451zM24.023 76.043h-0.354v-1.761c0.115 0.026 0.235 0.053 0.354 0.078V76.043zM45.496 76.043h-0.354v-1.805c0.119-0.026 0.235-0.048 0.354-0.074V76.043zM48.994 71.152c-8.061 2.528-15.269 2.537-20.508 1.898-3.081-6.771-3.793-20.288-3.938-24.274 3.727 0.406 7.402 0.617 10.995 0.617 8.8 0 14.75-1.213 17.237-1.84C52.776 62.503 49.743 69.631 48.994 71.152zM54.736 50.953c0.015-0.479 0.027-0.966 0.036-1.463 1.312 0.253 2.573 0.601 3.309 0.902C57.217 50.743 55.851 50.918 54.736 50.953zM34.663 35.713c2.949 0 5.395 2.198 5.785 5.063-2.022 0.388-4.075 0.583-6.114 0.583-2.23 0-4.111-0.237-5.472-0.485C29.199 37.973 31.672 35.713 34.663 35.713zM26.842 42.499l0.771 0.167c1.464 0.317 3.819 0.695 6.72 0.695 0 0 0 0 0 0 2.465 0 4.949-0.27 7.381-0.802l0.786-0.201v-0.805c0-0.729-0.107-1.431-0.294-2.101 3.29 0.757 6.009 1.977 7.656 3.419-4.303 0.641-9.118 0.966-14.349 0.966-7.394 0-13.8-0.657-16.845-1.029 1.81-1.554 4.849-2.828 8.498-3.55-0.223 0.727-0.344 1.497-0.344 2.295L26.842 42.499zM13.812 49.574c0.024 0.424 0.052 0.877 0.085 1.362-1.038-0.059-2.204-0.231-2.976-0.545C11.577 50.122 12.655 49.816 13.812 49.574zM65.507 16.735l0.571 9.885H16.774l0.073-1.265c0.505-0.681 1.028-1.349 1.577-2.001 0.439 0.817 1.292 1.381 2.282 1.381 1.433 0 2.599-1.167 2.599-2.601 0-1.036-0.614-1.925-1.493-2.342 1.159-1.081 2.393-2.1 3.695-3.057H65.507zM21.305 22.134c0 0.331-0.269 0.601-0.599 0.601-0.331 0-0.6-0.27-0.6-0.601 0-0.331 0.269-0.599 0.6-0.599C21.037 21.535 21.305 21.804 21.305 22.134zM64.061 31.533H18.79c-0.587-0.734-1.173-1.927-1.6-2.913h48.472C65.235 29.606 64.649 30.798 64.061 31.533zM64.046 14.45l0.242 0.285H28.481c0.16-0.098 0.322-0.19 0.483-0.285H64.046zM67.064 75.434v-4.053c0-1.165 0.729-2.157 1.754-2.56v9.173C67.794 77.593 67.064 76.6 67.064 75.434zM72.572 71.381v4.053c0 1.166-0.729 2.159-1.754 2.561v-9.173C71.843 69.224 72.572 70.216 72.572 71.381zM91.302 49.334H74.244c-0.168-0.243-0.626-1.169-0.712-4.114h17.495C91.186 46.585 91.279 47.958 91.302 49.334zM90.246 40.697L67.482 39.56c0.438-0.387 1.028-0.699 1.808-0.638l20.941 1.708C90.237 40.652 90.241 40.674 90.246 40.697zM74.088 34.866l3.784 0.351c1.425 0.132 2.523 1.251 2.688 2.618l-9.621-0.785c0.16-0.586 0.489-1.111 0.967-1.507C72.519 35.033 73.282 34.788 74.088 34.866zM66.337 41.505l24.325 1.214c0.03 0.167 0.054 0.334 0.081 0.501H71.519v1c0 5.118 0.944 6.354 1.655 6.838 0.314 0.214 0.638 0.293 0.919 0.293 0.079 0 0.155-0.006 0.227-0.018h16.97c-0.03 0.918-0.097 1.837-0.188 2.754H62.713C63.613 50.256 65.678 43.607 66.337 41.505zM71.42 61.781h-2.953c-0.72 0-1.337-0.418-1.643-1.02 1.651 0.021 3.795 0.047 6.2 0.072C72.707 61.396 72.11 61.781 71.42 61.781zM63.541 58.718c-0.343-0.078-1.428-0.517-1.203-2.63h28.517c-0.142 0.951-0.317 1.898-0.526 2.843C80.187 58.957 64.838 58.736 63.541 58.718z" fill="#ffffff" data-fill-palette-color="accent"></path><path d="M89.692 64.72c-0.512-0.203-1.095 0.048-1.299 0.561-0.298 0.753-0.628 1.516-0.98 2.267-0.234 0.5-0.02 1.096 0.48 1.33 0.138 0.064 0.282 0.095 0.424 0.095 0.376 0 0.736-0.213 0.906-0.575 0.37-0.789 0.716-1.589 1.029-2.378C90.456 65.505 90.205 64.924 89.692 64.72z" fill="#ffffff" data-fill-palette-color="accent"></path><path d="M65.618 50.547h3.599c0.553 0 1-0.448 1-1s-0.447-1-1-1h-3.599c-0.553 0-1 0.448-1 1S65.065 50.547 65.618 50.547z" fill="#ffffff" data-fill-palette-color="accent"></path><path d="M69.217 50.848h-3.599c-0.553 0-1 0.447-1 1s0.447 1 1 1h3.599c0.553 0 1-0.447 1-1S69.77 50.848 69.217 50.848z" fill="#ffffff" data-fill-palette-color="accent"></path><path d="M65.618 48.287h3.599c0.553 0 1-0.448 1-1s-0.447-1-1-1h-3.599c-0.553 0-1 0.448-1 1S65.065 48.287 65.618 48.287z" fill="#ffffff" data-fill-palette-color="accent"></path><path d="M34.824 41.129c2 0 4.017-0.675 4.017-2.185s-2.017-2.185-4.017-2.185c-1.999 0-4.016 0.675-4.016 2.185S32.825 41.129 34.824 41.129zM34.824 38.76c0.637 0 1.134 0.084 1.487 0.185-0.353 0.1-0.85 0.185-1.487 0.185s-1.134-0.084-1.486-0.185C33.69 38.845 34.187 38.76 34.824 38.76z" fill="#ffffff" data-fill-palette-color="accent"></path><path d="M34.446 57.289c-0.099 0-0.179 0.006-0.237 0.013-5.459 0.109-6.237 11.975-6.308 13.334l-0.043 0.834 0.813 0.191c1.695 0.398 3.58 0.601 5.603 0.601 3.421 0 6.043-0.573 6.153-0.598l0.886-0.197-0.11-0.9C39.741 58.583 35.991 57.289 34.446 57.289zM34.273 70.262c-1.542 0-2.989-0.125-4.316-0.373 0.332-3.937 1.668-10.588 4.328-10.588l0.012 0.036 0.148-0.048c1.124 0 3.486 2.241 4.649 10.586C38.087 70.037 36.321 70.262 34.273 70.262z" fill="#ffffff" data-fill-palette-color="accent"></path><path d="M50.365 52.898l-2 0.035c0.001 0.06 0.095 5.971-0.841 10.441l1.958 0.41C50.463 59.096 50.369 53.149 50.365 52.898z" fill="#ffffff" data-fill-palette-color="accent"></path><path d="M47.306 65.253c-0.026 0.064-0.26 0.673-0.591 2.33l1.961 0.393c0.292-1.458 0.488-1.982 0.49-1.987l-0.932-0.363L47.306 65.253z" fill="#ffffff" data-fill-palette-color="accent"></path><path d="M64.48 24.506v-4.743H51.854v4.743H64.48zM53.854 21.764h8.627v0.743h-8.627V21.764z" fill="#ffffff" data-fill-palette-color="accent"></path><rect x="56.875" y="75.021" width="2" height="10.854" fill="#ffffff" data-fill-palette-color="accent"></rect></g></svg></g></svg></g><g id="text-0"><path d="M4.569 86.661c0.565 0.192 1.215 0.427 1.951 0.705 0.738 0.272 1.3 0.484 1.685 0.636v0c1.082 0.439 2.172 0.845 3.27 1.218v0c0.822 0.279 1.686 0.537 2.593 0.773v0c-0.743-0.997-1.21-1.961-1.402-2.892-0.19-0.938-0.099-1.956 0.274-3.054v0c0.272-0.802 0.882-1.429 1.831-1.88 0.952-0.443 1.937-0.602 2.954-0.479v0c0.863 0.221 1.901 0.538 3.114 0.949v0c0.777 0.264 1.805 0.566 3.085 0.908v0c0.49 0.116 0.976 0.141 1.456 0.075 0.481-0.066 0.786-0.292 0.917-0.676v0c0.068-0.199 0.111-0.36 0.131-0.482 0.016-0.131 0.042-0.251 0.08-0.36v0c0.102-0.302 0.25-0.484 0.443-0.547 0.189-0.072 0.425-0.06 0.707 0.036v0c0.52 0.176 0.82 0.568 0.901 1.175 0.087 0.609 0.057 1.129-0.089 1.56v0c-0.529 1.56-1.541 2.409-3.034 2.546v0c-0.849 0.077-1.875-0.042-3.078-0.358-1.212-0.311-2.604-0.733-4.177-1.267v0c-1.56-0.529-2.52-0.265-2.879 0.794v0c-0.198 0.584-0.09 1.276 0.327 2.076 0.414 0.806 1.058 1.576 1.932 2.31 0.871 0.725 1.848 1.272 2.934 1.64v0l3.379 1.115c0.475 0.161 0.763 0.463 0.864 0.905 0.1 0.442 0.095 0.827-0.016 1.154v0c-0.161 0.475-0.452 0.856-0.872 1.143-0.422 0.294-0.819 0.377-1.191 0.251v0c-1.565-0.703-4.251-1.701-8.057-2.993v0c-0.693-0.235-3.273-1.05-7.74-2.444v0l-3.008-0.914c-0.481-0.163-0.826-0.52-1.032-1.07-0.213-0.552-0.229-1.098-0.046-1.637v0c0.163-0.481 0.39-0.791 0.68-0.929 0.292-0.144 0.663-0.14 1.113 0.013z" fill="#ffffff" data-fill-palette-color="accent"></path><path d="M36.673 65.443c0.437 0.246 0.675 0.687 0.714 1.324 0.033 0.633-0.062 1.147-0.285 1.543v0c-0.425 0.756-0.859 1.306-1.3 1.648-0.442 0.343-1.026 0.558-1.753 0.647v0c0.166 0.77 0.111 1.669-0.164 2.697-0.272 1.022-0.62 1.911-1.045 2.667v0c-0.695 1.235-1.6 2.063-2.717 2.485-1.113 0.416-2.316 0.26-3.61-0.468v0c-0.555-0.312-0.983-0.748-1.284-1.306-0.297-0.564-0.481-1.204-0.552-1.921v0c-0.052-0.792 0.026-1.615 0.234-2.47 0.205-0.849 0.532-1.672 0.981-2.469v0c0.233-0.414 0.592-0.865 1.077-1.355 0.479-0.493 0.9-0.847 1.263-1.062v0l-0.478-0.27c-1.075-0.605-1.963-0.762-2.663-0.471-0.697 0.285-1.371 1.006-2.023 2.164v0c-0.189 0.337-0.306 0.71-0.351 1.121-0.047 0.401-0.067 0.88-0.061 1.435v0c-0.017 0.722-0.165 1.33-0.444 1.827v0c-0.103 0.183-0.322 0.282-0.656 0.296-0.338 0.02-0.607-0.027-0.809-0.14v0c-0.573-0.322-0.916-0.873-1.03-1.653-0.11-0.785-0.056-1.614 0.163-2.487 0.213-0.876 0.487-1.612 0.823-2.209v0c0.336-0.597 0.837-1.217 1.502-1.861 0.666-0.644 1.336-1.103 2.011-1.377v0c0.856-0.304 1.719-0.429 2.591-0.374 0.871 0.055 1.715 0.311 2.53 0.77v0c0.26 0.146 0.635 0.385 1.126 0.715v0c0.538 0.357 1.005 0.647 1.401 0.87v0c0.177 0.1 0.434 0.272 0.771 0.516v0c0.417 0.281 0.756 0.495 1.016 0.641v0c0.236 0.133 0.49 0.159 0.761 0.078 0.265-0.084 0.466-0.247 0.602-0.489v0l0.442-0.848c0.123-0.219 0.297-0.342 0.524-0.371 0.226-0.028 0.457 0.024 0.693 0.157zM30.498 74.616c0.482-0.857 0.797-1.624 0.945-2.303 0.139-0.676 0.199-1.556 0.18-2.641v0c-0.29-0.272-0.708-0.573-1.254-0.904v0c-1.135 0.8-1.903 1.558-2.305 2.273v0c-0.459 0.815-0.717 1.627-0.775 2.435-0.064 0.804 0.283 1.419 1.039 1.844v0c0.378 0.213 0.787 0.233 1.226 0.06 0.439-0.173 0.754-0.428 0.944-0.764z" fill="#ffffff" data-fill-palette-color="accent"></path><path d="M31.321 55.833c-0.13 0.156-0.241 0.316-0.332 0.478-0.091 0.162-0.195 0.314-0.312 0.455v0c-0.16 0.193-0.396 0.301-0.707 0.324-0.316 0.019-0.544-0.03-0.685-0.146v0c-0.453-0.377-0.619-0.899-0.497-1.565 0.126-0.671 0.387-1.244 0.782-1.718v0c0.334-0.401 0.816-0.705 1.447-0.912 0.627-0.202 1.24-0.234 1.84-0.096v0c-0.165-0.904-0.092-1.792 0.218-2.662 0.305-0.875 0.757-1.672 1.356-2.391v0c0.672-0.808 1.552-1.345 2.639-1.613 1.087-0.268 2.189-0.277 3.304-0.028 1.115 0.24 2.06 0.683 2.837 1.329v0c0.75 0.625 1.352 1.263 1.806 1.914 0.459 0.646 0.818 1.417 1.078 2.313v0c0.254 0.988 0.265 2.029 0.033 3.123-0.236 1.1-0.793 2.176-1.669 3.228v0c-0.234 0.281-0.591 0.562-1.071 0.842-0.485 0.275-0.924 0.474-1.317 0.597v0c1.089 1.118 2.071 2.042 2.947 2.77v0c0.526 0.438 1.05 0.826 1.572 1.163v0c0.589 0.437 1.005 0.758 1.25 0.962v0c0.386 0.321 0.561 0.688 0.527 1.1-0.039 0.417-0.188 0.783-0.449 1.095v0c-0.529 0.636-1.045 0.911-1.549 0.827-0.513-0.083-1.085-0.387-1.715-0.911v0c-1.454-1.325-2.774-2.574-3.96-3.747v0c-1.492-1.418-3.887-3.5-7.184-6.245v0c-0.318-0.265-0.703-0.48-1.157-0.645-0.454-0.175-0.798-0.122-1.032 0.159zM39.546 57.031c0.407 0.189 0.891 0.169 1.453-0.061 0.566-0.235 0.987-0.519 1.265-0.852v0c0.828-0.995 1.178-1.966 1.047-2.912v0c-0.082-0.686-0.26-1.24-0.534-1.662-0.269-0.418-0.808-0.963-1.616-1.636v0c-0.636-0.529-1.269-0.849-1.9-0.959-0.636-0.115-1.199-0.081-1.687 0.103-0.498 0.185-0.877 0.434-1.137 0.747v0c-0.598 0.719-0.868 1.482-0.809 2.29 0.054 0.804 0.397 1.574 1.027 2.311v0c0.51 0.574 1.473 1.451 2.891 2.631z" fill="#ffffff" data-fill-palette-color="accent"></path><path d="M45.318 40.407c-0.156 0.13-0.294 0.267-0.413 0.41-0.119 0.143-0.249 0.273-0.389 0.39v0c-0.193 0.16-0.444 0.224-0.754 0.191-0.314-0.038-0.53-0.128-0.647-0.269v0c-0.377-0.453-0.445-0.996-0.204-1.629 0.246-0.637 0.606-1.153 1.08-1.547v0c0.401-0.334 0.931-0.545 1.589-0.634 0.653-0.085 1.262-0.005 1.826 0.24v0c0.002-0.919 0.235-1.779 0.699-2.579 0.459-0.805 1.048-1.507 1.767-2.105v0c0.808-0.672 1.771-1.041 2.889-1.107 1.118-0.066 2.203 0.125 3.254 0.573 1.052 0.438 1.902 1.046 2.548 1.822v0c0.624 0.75 1.101 1.487 1.429 2.211 0.334 0.719 0.547 1.542 0.64 2.47v0c0.07 1.017-0.108 2.043-0.535 3.077-0.432 1.039-1.175 1.996-2.228 2.872v0c-0.281 0.234-0.683 0.445-1.206 0.633-0.527 0.183-0.995 0.299-1.404 0.348v0c0.868 1.297 1.666 2.384 2.395 3.259v0c0.438 0.526 0.883 1.003 1.334 1.429v0c0.499 0.537 0.851 0.928 1.055 1.173v0c0.321 0.386 0.427 0.778 0.318 1.177-0.114 0.404-0.327 0.735-0.64 0.995v0c-0.636 0.529-1.194 0.706-1.673 0.533-0.489-0.175-0.996-0.578-1.521-1.208v0c-1.19-1.568-2.261-3.035-3.214-4.403v0c-1.209-1.666-3.186-4.148-5.93-7.447v0c-0.264-0.318-0.604-0.599-1.02-0.844-0.415-0.255-0.763-0.265-1.044-0.031zM53.189 43.078c0.366 0.26 0.846 0.328 1.44 0.205 0.599-0.128 1.065-0.331 1.398-0.609v0c0.995-0.828 1.515-1.719 1.56-2.673v0c0.044-0.689-0.031-1.266-0.224-1.731-0.189-0.46-0.619-1.094-1.291-1.902v0c-0.529-0.636-1.094-1.065-1.694-1.289-0.605-0.229-1.164-0.297-1.678-0.204-0.523 0.092-0.942 0.267-1.255 0.527v0c-0.719 0.598-1.123 1.3-1.211 2.106-0.093 0.8 0.104 1.62 0.591 2.458v0c0.397 0.657 1.185 1.695 2.364 3.112z" fill="#ffffff" data-fill-palette-color="accent"></path><path d="M73.777 42.731c-0.753 0.431-1.451 0.665-2.092 0.704-0.647 0.042-1.194-0.04-1.64-0.246-0.446-0.206-0.742-0.438-0.89-0.697v0c-0.192-0.335-0.224-0.665-0.096-0.988 0.128-0.323 0.362-0.582 0.703-0.777v0c0.194-0.111 0.416-0.16 0.666-0.146 0.244 0.017 0.381 0.032 0.413 0.045v0c0.195 0.013 0.38 0.017 0.556 0.01 0.182-0.01 0.352-0.061 0.511-0.151v0c0.436-0.249 0.627-0.741 0.573-1.476-0.05-0.729-0.305-1.817-0.764-3.264v0c-1.635-0.799-3.125-1.684-4.47-2.657v0l-1.587-1.177c-0.229-0.182-0.853-0.645-1.871-1.39-1.019-0.745-1.968-1.381-2.848-1.909v0c-0.593-0.395-0.946-0.693-1.061-0.893v0c-0.283-0.494-0.317-0.959-0.105-1.393 0.209-0.44 0.541-0.789 0.994-1.048v0c0.318-0.182 0.599-0.256 0.843-0.224 0.239 0.035 0.563 0.158 0.973 0.369v0c1.122 0.624 2.561 1.694 4.319 3.212v0c1.022 0.86 1.813 1.505 2.371 1.936 0.564 0.427 1.179 0.833 1.844 1.218v0c-0.105-0.963-0.432-2.525-0.981-4.687v0c-0.3-1.249-0.528-2.255-0.682-3.018-0.164-0.765-0.268-1.487-0.312-2.164v0c-0.029-0.46 0.03-0.876 0.177-1.248 0.14-0.369 0.378-0.65 0.713-0.842v0c0.341-0.195 0.774-0.278 1.298-0.249 0.53 0.025 0.89 0.206 1.082 0.54v0c0.114 0.2 0.18 0.479 0.197 0.837v0c0.248 2.224 0.532 4.291 0.851 6.201 0.31 1.908 0.738 3.955 1.284 6.141v0c0.284 1.235 0.524 2.426 0.718 3.571 0.198 1.152 0.288 1.877 0.271 2.176v0c-0.078 0.779-0.258 1.495-0.54 2.148-0.286 0.647-0.758 1.16-1.418 1.536z" fill="#ffffff" data-fill-palette-color="accent"></path><path d="M88.117 20.442c-0.234-0.835-0.316-1.717-0.245-2.645 0.069-0.935 0.256-1.825 0.561-2.67v0c0.313-0.841 0.955-1.641 1.925-2.399 0.968-0.764 1.884-1.267 2.745-1.508v0c0.875-0.245 1.804-0.372 2.787-0.38 0.982-0.015 1.719 0.18 2.213 0.583v0c1.13 0.915 1.848 1.921 2.155 3.018v0c0.167 0.594 0.184 1.135 0.054 1.622-0.137 0.489-0.37 1.04-0.699 1.653v0c-0.26 0.502-0.774 0.931-1.54 1.287-0.766 0.356-1.544 0.644-2.334 0.866v0c-0.509 0.143-1.14 0.267-1.891 0.372-0.752 0.105-1.489 0.175-2.212 0.208v0c0.17 0.431 0.402 0.831 0.695 1.199 0.287 0.37 0.581 0.629 0.883 0.777v0c0.561 0.293 1.092 0.43 1.593 0.408 0.508-0.023 1.133-0.138 1.877-0.346v0c0.79-0.221 1.491-0.559 2.103-1.012v0c0.492-0.356 0.914-0.583 1.266-0.683v0c0.418-0.117 0.77-0.079 1.057 0.116 0.293 0.192 0.495 0.484 0.605 0.876v0c0.156 0.555-0.038 1.095-0.581 1.62-0.534 0.53-1.192 0.996-1.973 1.398-0.777 0.394-1.416 0.661-1.919 0.802v0c-1.031 0.289-2.085 0.384-3.163 0.285-1.072-0.108-2.02-0.412-2.843-0.914v0c-0.701-0.465-1.326-1.089-1.876-1.871-0.55-0.782-0.964-1.669-1.243-2.662zM94.048 13.986c-0.483 0.135-0.94 0.362-1.372 0.68-0.43 0.325-0.753 0.693-0.968 1.106v0c-0.275 0.528-0.448 0.939-0.52 1.233-0.072 0.295-0.07 0.667 0.007 1.117v0c0.598 0.023 1.765-0.21 3.501-0.696v0c0.946-0.265 1.637-0.614 2.072-1.045 0.437-0.425 0.59-0.87 0.461-1.333v0c-0.13-0.463-0.531-0.802-1.204-1.015-0.679-0.211-1.338-0.227-1.977-0.047z" fill="#ffffff" data-fill-palette-color="accent"></path><path d="M110.184 17.498c0.118 0.86 0.336 1.504 0.655 1.932 0.325 0.428 0.693 0.613 1.103 0.557v0c0.222-0.03 0.434-0.077 0.638-0.138 0.197-0.061 0.396-0.106 0.597-0.134v0c0.228-0.031 0.442 0.056 0.641 0.262 0.198 0.199 0.316 0.436 0.354 0.711v0c0.074 0.544-0.119 1.002-0.581 1.372-0.469 0.372-1.133 0.617-1.993 0.735v0c-0.611 0.084-1.254-0.016-1.93-0.3-0.669-0.291-1.264-0.809-1.783-1.552-0.513-0.751-0.852-1.724-1.015-2.919v0c-0.353-2.579-0.609-4.768-0.766-6.566v0c-0.176-2.138-0.486-4.825-0.93-8.063v0c-0.139-1.014-0.179-1.734-0.121-2.159v0c0.091-0.334 0.276-0.606 0.555-0.815 0.285-0.217 0.595-0.348 0.931-0.395v0c0.343-0.047 0.653-0.031 0.931 0.047 0.271 0.079 0.47 0.237 0.598 0.473v0c0.124 0.257 0.221 0.514 0.29 0.771 0.069 0.257 0.137 0.624 0.202 1.101v0c0.127 0.927 0.216 1.825 0.267 2.694v0c0.095 1.041 0.175 1.8 0.24 2.276v0c0.371 4.007 0.743 7.377 1.117 10.11z" fill="#ffffff" data-fill-palette-color="accent"></path><path d="M117.422 15c-0.001-0.868 0.158-1.739 0.476-2.613 0.318-0.882 0.737-1.689 1.258-2.422v0c0.528-0.726 1.361-1.323 2.5-1.792 1.138-0.476 2.155-0.714 3.05-0.714v0c0.908-0.001 1.837 0.127 2.786 0.383 0.949 0.25 1.607 0.636 1.974 1.158v0c0.842 1.185 1.263 2.348 1.264 3.486v0c0.001 0.617-0.128 1.142-0.385 1.576-0.264 0.434-0.636 0.902-1.117 1.405v0c-0.386 0.414-0.996 0.689-1.829 0.825-0.834 0.136-1.661 0.205-2.481 0.206v0c-0.529 0.001-1.169-0.05-1.922-0.151-0.753-0.101-1.481-0.232-2.187-0.394v0c0.048 0.461 0.164 0.908 0.347 1.342 0.177 0.434 0.391 0.762 0.642 0.985v0c0.461 0.433 0.936 0.707 1.424 0.823 0.495 0.115 1.129 0.172 1.902 0.171v0c0.82-0.001 1.586-0.137 2.297-0.409v0c0.569-0.211 1.037-0.316 1.403-0.317v0c0.434 0 0.763 0.131 0.987 0.396 0.231 0.264 0.346 0.6 0.347 1.006v0c0.001 0.576-0.331 1.044-0.995 1.404-0.657 0.367-1.416 0.639-2.277 0.816-0.854 0.17-1.542 0.256-2.064 0.256v0c-1.071 0.001-2.112-0.191-3.122-0.577-1.004-0.392-1.835-0.94-2.493-1.644v0c-0.55-0.637-0.984-1.406-1.304-2.307-0.319-0.901-0.48-1.867-0.481-2.898zM124.871 10.377c-0.502 0-1.003 0.096-1.504 0.286-0.501 0.197-0.911 0.465-1.23 0.804v0c-0.406 0.434-0.684 0.784-0.833 1.048-0.149 0.265-0.247 0.624-0.294 1.079v0c0.57 0.182 1.756 0.273 3.56 0.271v0c0.983-0.001 1.742-0.151 2.277-0.45 0.535-0.292 0.803-0.679 0.802-1.16v0c0-0.481-0.296-0.915-0.886-1.301-0.597-0.386-1.228-0.578-1.892-0.577z" fill="#ffffff" data-fill-palette-color="accent"></path><path d="M148.588 13.582c-0.167 0.996-0.758 1.409-1.775 1.239v0c-0.334-0.056-0.602-0.183-0.802-0.382-0.2-0.199-0.408-0.477-0.623-0.836v0c-0.551-0.855-1.074-1.324-1.568-1.407v0c-0.655-0.11-1.322-0.026-2.001 0.252-0.687 0.284-1.279 0.741-1.777 1.373-0.498 0.631-0.818 1.375-0.961 2.23v0c-0.159 0.949-0.107 1.769 0.155 2.46 0.269 0.691 0.76 1.33 1.473 1.917v0c0.262 0.202 0.582 0.383 0.96 0.542 0.38 0.153 0.717 0.254 1.011 0.303v0c0.655 0.11 1.521-0.01 2.597-0.359v0c0.391-0.12 0.718-0.206 0.981-0.258 0.262-0.045 0.527-0.046 0.794-0.001v0c0.247 0.041 0.509 0.202 0.786 0.482 0.277 0.273 0.387 0.58 0.33 0.922v0c-0.113 0.675-0.523 1.191-1.228 1.547-0.706 0.356-1.536 0.574-2.492 0.654-0.948 0.082-1.841 0.052-2.676-0.087v0c-1.324-0.222-2.504-0.729-3.539-1.521-1.035-0.799-1.8-1.79-2.296-2.972-0.496-1.183-0.631-2.45-0.405-3.8v0c0.242-1.444 0.787-2.707 1.635-3.789 0.856-1.087 1.892-1.876 3.108-2.366 1.216-0.49 2.476-0.626 3.78-0.408v0c0.742 0.124 1.485 0.39 2.227 0.796 0.744 0.4 1.343 0.905 1.798 1.518 0.455 0.606 0.625 1.256 0.508 1.951z" fill="#ffffff" data-fill-palette-color="accent"></path><path d="M156.463 15.597l-1.52-0.652c-0.288-0.145-0.486-0.354-0.596-0.626-0.114-0.281-0.121-0.572-0.022-0.875v0c0.051-0.154 0.144-0.306 0.279-0.454 0.135-0.148 0.297-0.262 0.488-0.342v0c0.377-0.19 1.183-0.08 2.419 0.329v0c0.453-0.786 0.822-1.613 1.109-2.482v0c0.106-0.322 0.186-0.606 0.239-0.853 0.059-0.245 0.11-0.431 0.153-0.56v0c0.157-0.476 0.456-0.774 0.895-0.893 0.433-0.121 0.878-0.106 1.335 0.045v0c0.56 0.185 0.897 0.45 1.011 0.795 0.112 0.351 0.043 0.907-0.208 1.666v0c-0.372 1.126-0.834 2.198-1.384 3.216v0c0.348 0.115 0.83 0.253 1.448 0.415v0c0.839 0.227 1.442 0.402 1.808 0.522v0c0.373 0.123 0.665 0.32 0.877 0.59 0.209 0.276 0.259 0.578 0.15 0.906v0c-0.279 0.843-0.822 1.213-1.631 1.11v0c-0.87-0.066-2.156-0.356-3.858-0.868v0c-0.343 0.822-0.68 1.732-1.009 2.729v0c-0.515 1.558-0.841 2.867-0.977 3.929v0c-0.101 0.738-0.046 1.316 0.165 1.736 0.213 0.413 0.632 0.723 1.256 0.929v0c0.373 0.123 0.785 0.152 1.235 0.087v0c0.313-0.061 0.575-0.056 0.788 0.014v0c0.309 0.102 0.499 0.272 0.57 0.51 0.078 0.24 0.062 0.524-0.046 0.852v0c-0.2 0.605-0.691 1-1.473 1.184-0.782 0.184-1.681 0.108-2.698-0.228v0c-0.631-0.209-1.215-0.569-1.752-1.082-0.537-0.513-0.949-1.071-1.236-1.673v0c-0.043-0.086-0.08-0.373-0.111-0.861-0.031-0.489-0.028-1.005 0.009-1.55v0c0.124-1.087 0.49-2.551 1.098-4.392v0c0.266-0.805 0.662-1.862 1.189-3.173z" fill="#ffffff" data-fill-palette-color="accent"></path><path d="M169.323 31.946c-0.174 0.352-0.46 0.593-0.857 0.722-0.4 0.135-0.794 0.106-1.182-0.086v0c-0.614-0.304-1.004-0.645-1.173-1.024-0.171-0.372-0.099-0.877 0.217-1.515v0c0.373-0.753 0.842-1.754 1.407-3.002v0c0.466-1.048 0.87-1.918 1.214-2.61v0c0.162-0.328 0.397-0.749 0.704-1.263v0c0.283-0.465 0.486-0.822 0.61-1.071v0c0.132-0.419 0.136-0.818 0.013-1.196-0.117-0.375-0.369-0.659-0.758-0.852v0c-0.182-0.09-0.29-0.254-0.324-0.489-0.043-0.233-0.02-0.441 0.07-0.624v0c0.235-0.474 0.603-0.737 1.106-0.791 0.5-0.063 1.014 0.037 1.543 0.299v0c1.106 0.548 1.549 1.584 1.331 3.11v0c0.838-0.349 1.691-0.543 2.558-0.583 0.876-0.043 1.633 0.094 2.271 0.41v0c0.753 0.373 1.34 0.921 1.761 1.644 0.418 0.714 0.456 1.417 0.113 2.109v0c-0.193 0.389-0.558 0.707-1.097 0.955-0.542 0.239-0.986 0.272-1.332 0.101v0c-0.182-0.09-0.318-0.214-0.406-0.372-0.089-0.157-0.177-0.375-0.266-0.654v0c-0.107-0.303-0.208-0.534-0.303-0.694-0.098-0.169-0.238-0.299-0.42-0.39v0c-0.328-0.162-0.66-0.263-0.997-0.301-0.343-0.041-0.599-0.013-0.768 0.085v0c-0.581 0.348-1.048 0.688-1.401 1.02-0.363 0.335-0.66 0.736-0.892 1.204v0c-0.171 0.346-0.317 0.618-0.438 0.815v0l-0.893 1.736c-0.132 0.267-0.269 0.566-0.411 0.898-0.144 0.337-0.245 0.594-0.301 0.769v0c-0.213 0.583-0.446 1.129-0.699 1.64z" fill="#ffffff" data-fill-palette-color="accent"></path><path d="M194.312 36.462c-0.033 0.366-0.177 0.832-0.432 1.398-0.257 0.557-0.523 1.032-0.8 1.426v0c-0.509 0.728-1.392 1.653-2.649 2.776v0c-2.936 1.453-5.668 1.296-8.195-0.473v0c-0.933-0.653-1.67-1.628-2.211-2.924-0.541-1.297-0.718-2.48-0.532-3.549v0c0.623-1.955 1.086-3.149 1.39-3.583v0c0.521-0.744 1.238-1.426 2.15-2.044 0.915-0.609 1.84-1.046 2.777-1.309v0c0.62-0.212 1.45-0.181 2.492 0.093 1.04 0.264 1.896 0.631 2.567 1.102v0c1.311 0.917 2.251 1.944 2.822 3.079 0.567 1.141 0.774 2.477 0.621 4.008zM188.711 39.27c0.262-0.173 0.746-0.765 1.454-1.776v0c0.381-0.544 0.654-1.147 0.819-1.809 0.171-0.658 0.202-1.306 0.094-1.945v0c-0.012-0.066-0.072-0.199-0.18-0.398-0.114-0.204-0.286-0.448-0.516-0.734-0.231-0.285-0.532-0.558-0.904-0.819v0c-1.05-0.735-2.112-0.853-3.188-0.357-1.074 0.506-1.984 1.292-2.73 2.359v0c-0.128 0.183-0.327 0.574-0.597 1.171-0.26 0.596-0.4 0.986-0.421 1.17v0c-0.028 0.17-0.007 0.454 0.063 0.851 0.07 0.397 0.215 0.804 0.435 1.222 0.22 0.419 0.519 0.76 0.896 1.025v0c0.839 0.587 1.651 0.857 2.436 0.811 0.785-0.046 1.565-0.303 2.339-0.771z" fill="#ffffff" data-fill-palette-color="accent"></path><path d="M203.983 57.971c0.051 0.111 0.136 0.283 0.257 0.515 0.125 0.228 0.201 0.404 0.227 0.529 0.031 0.13-0.002 0.242-0.1 0.337v0c-0.377 0.4-0.84 0.569-1.391 0.505-0.545-0.058-1.016-0.293-1.41-0.703v0c-0.616-0.64-0.926-1.305-0.932-1.996-0.006-0.7 0.268-1.471 0.821-2.314v0c0.213-0.336 0.566-0.742 1.059-1.217v0c0.278-0.268 0.747-0.686 1.405-1.253v0c0.692-0.6 1.236-1.091 1.632-1.471v0c0.576-0.555 0.927-1.202 1.052-1.943 0.129-0.736-0.083-1.392-0.638-1.968v0c-0.334-0.347-0.784-0.61-1.351-0.789-0.572-0.184-1.077-0.205-1.516-0.065v0c-0.714 0.207-1.398 0.531-2.054 0.974v0c-1.161 0.769-2.276 1.668-3.346 2.697v0c-0.508 0.489-0.894 0.874-1.159 1.157v0c-0.068 0.066-0.191 0.193-0.367 0.381-0.181 0.193-0.371 0.343-0.569 0.45-0.194 0.111-0.404 0.182-0.63 0.21v0c-0.163-0.003-0.356-0.062-0.579-0.176-0.223-0.124-0.405-0.26-0.546-0.406v0c-0.221-0.23-0.4-0.612-0.539-1.147-0.138-0.535-0.106-0.947 0.096-1.235v0l0.396-0.424c0.147-0.141 0.336-0.291 0.57-0.449v0c1.336-0.909 2.434-1.777 3.294-2.604v0c0.376-0.362 0.665-0.654 0.865-0.875v0l1.13-1.144c0.396-0.381 0.685-0.847 0.868-1.4 0.174-0.553 0.136-0.959-0.113-1.217v0c-0.08-0.083-0.22-0.174-0.419-0.274-0.2-0.09-0.346-0.184-0.44-0.282v0c-0.16-0.166-0.248-0.419-0.266-0.76-0.017-0.35 0.065-0.612 0.245-0.787v0c0.347-0.334 0.738-0.489 1.174-0.466v0c0.435 0.061 0.824 0.153 1.167 0.274 0.343 0.131 0.664 0.353 0.965 0.666v0c0.254 0.264 0.436 0.502 0.547 0.716 0.106 0.208 0.213 0.534 0.32 0.977v0c0.058 0.226 0.042 0.571-0.049 1.034-0.086 0.468-0.319 1.013-0.701 1.634v0c1.195-0.332 2.26-0.335 3.194-0.011 0.929 0.32 1.868 0.973 2.817 1.96v0c0.367 0.381 0.634 0.909 0.803 1.584 0.169 0.674 0.24 1.325 0.214 1.953v0c-0.075 0.646-0.284 1.323-0.629 2.03-0.345 0.717-0.73 1.28-1.154 1.689v0c-0.249 0.24-0.669 0.61-1.259 1.112v0c-0.492 0.379-0.984 0.806-1.477 1.28v0c-1.153 1.109-1.647 2.013-1.484 2.712z" fill="#ffffff" data-fill-palette-color="accent"></path><path d="M223.718 51.867c0.415 0.688 0.657 1.377 0.727 2.067 0.066 0.684-0.185 1.235-0.752 1.653v0c-0.426 0.314-0.906 0.365-1.442 0.153-0.545-0.213-1.02-0.596-1.426-1.147v0c-0.39-0.529-0.52-0.998-0.391-1.405 0.124-0.403 0.333-0.713 0.628-0.93v0c0.551-0.406 1.054-0.689 1.51-0.848 0.454-0.149 0.836 0.003 1.146 0.457zM218.094 59.422l-4.96 3.656-0.803 0.591c-0.715 0.527-1.373 1.045-1.973 1.556-0.601 0.51-1.195 1.041-1.783 1.591v0c-0.202 0.115-0.492 0.115-0.872-0.001-0.38-0.116-0.644-0.275-0.793-0.476v0c-0.257-0.349-0.449-0.751-0.574-1.207-0.129-0.461-0.121-0.804 0.025-1.029v0c0.509-0.543 0.993-0.984 1.451-1.322v0c1.506-1.11 3.161-2.401 4.964-3.873v0c1.607-1.294 2.74-2.184 3.401-2.67v0c0.327-0.241 0.732-0.287 1.213-0.137 0.485 0.156 0.863 0.417 1.132 0.783v0c0.394 0.535 0.55 0.997 0.466 1.387-0.083 0.39-0.381 0.774-0.894 1.151z" fill="#ffffff" data-fill-palette-color="accent"></path><path d="M226.178 76.839c-0.888 0.481-1.578 0.268-2.068-0.639v0c-0.161-0.298-0.225-0.587-0.191-0.867 0.033-0.28 0.126-0.615 0.276-1.005v0c0.336-0.96 0.385-1.661 0.146-2.102v0c-0.316-0.584-0.793-1.059-1.429-1.424-0.646-0.367-1.371-0.553-2.174-0.557-0.804-0.004-1.587 0.2-2.351 0.612v0c-0.847 0.458-1.461 1.003-1.844 1.634-0.38 0.637-0.582 1.417-0.607 2.34v0c0.002 0.331 0.056 0.694 0.162 1.091 0.113 0.394 0.24 0.722 0.383 0.985v0c0.316 0.584 0.942 1.193 1.879 1.827v0c0.335 0.235 0.604 0.44 0.807 0.615 0.197 0.179 0.36 0.387 0.488 0.626v0c0.119 0.221 0.153 0.526 0.103 0.916-0.045 0.387-0.22 0.662-0.524 0.827v0c-0.602 0.326-1.261 0.32-1.975-0.018-0.715-0.338-1.397-0.859-2.048-1.563-0.647-0.698-1.173-1.42-1.576-2.165v0c-0.639-1.18-0.964-2.423-0.976-3.726-0.006-1.307 0.305-2.52 0.934-3.639 0.628-1.118 1.544-2.003 2.748-2.654v0c1.288-0.697 2.619-1.043 3.993-1.039 1.383 0.007 2.642 0.339 3.777 0.997 1.134 0.658 2.016 1.568 2.645 2.73v0c0.358 0.662 0.605 1.411 0.742 2.247 0.142 0.833 0.111 1.616-0.093 2.35-0.198 0.731-0.607 1.265-1.227 1.601z" fill="#ffffff" data-fill-palette-color="accent"></path><path d="M228.281 93.13c-0.048 0.211-0.131 0.621-0.247 1.229-0.11 0.606-0.33 1.064-0.66 1.374-0.323 0.307-0.83 0.582-1.521 0.825v0c-0.774 0.272-1.537 0.288-2.289 0.049-0.754-0.245-1.416-0.667-1.985-1.264v0c-0.419-0.435-0.822-1.001-1.21-1.698-0.388-0.697-0.659-1.263-0.812-1.698v0c-0.15-0.429-0.281-1.004-0.391-1.727-0.11-0.723-0.157-1.235-0.14-1.535v0c0.15-0.8 0.421-1.542 0.813-2.226 0.388-0.675 0.873-1.115 1.455-1.319v0c0.435-0.153 0.822-0.134 1.162 0.055 0.348 0.194 0.602 0.518 0.762 0.972v0c0.074 0.211 0.073 0.463-0.004 0.756-0.077 0.293-0.186 0.514-0.327 0.665v0c-0.48 0.434-0.762 0.982-0.846 1.644-0.08 0.653-0.017 1.271 0.187 1.852v0c0.265 0.755 0.632 1.412 1.103 1.973 0.476 0.558 0.929 0.762 1.357 0.612v0c0.198-0.07 0.338-0.173 0.419-0.309 0.088-0.139 0.165-0.317 0.233-0.534v0c0.11-0.383 0.126-0.899 0.049-1.548-0.07-0.651-0.114-1.07-0.129-1.258v0c-0.118-0.95-0.129-1.912-0.033-2.888v0c0.113-0.988 0.364-1.827 0.754-2.517 0.381-0.694 1.013-1.196 1.896-1.506v0c0.582-0.204 1.266-0.2 2.052 0.012 0.79 0.204 1.407 0.53 1.852 0.977v0c0.29 0.336 0.683 0.931 1.176 1.786 0.494 0.854 0.798 1.444 0.913 1.77v0c0.173 0.492 0.31 1.048 0.412 1.666 0.108 0.616 0.11 1.111 0.005 1.485v0c-0.141 0.703-0.336 1.304-0.586 1.801-0.249 0.497-0.611 0.829-1.084 0.995v0c-0.237 0.083-0.507 0.121-0.812 0.112-0.307-0.014-0.522-0.086-0.646-0.214v0c-0.259-0.268-0.465-0.62-0.618-1.055v0c-0.067-0.192-0.068-0.368-0.002-0.527 0.068-0.153 0.187-0.367 0.356-0.643v0c0.281-0.365 0.416-0.667 0.404-0.907v0c-0.026-0.278-0.078-0.684-0.158-1.216-0.077-0.526-0.146-0.876-0.207-1.048v0c-0.175-0.499-0.492-0.962-0.951-1.391-0.468-0.432-0.884-0.584-1.249-0.456v0c-0.198 0.07-0.323 0.207-0.373 0.412-0.046 0.196-0.083 0.399-0.109 0.609-0.018 0.215-0.029 0.358-0.032 0.432v0c-0.052 0.528-0.058 1.094-0.018 1.698 0.04 0.604 0.063 0.977 0.07 1.118v0c0.127 1.263 0.13 2.131 0.009 2.605z" fill="#ffffff" data-fill-palette-color="accent"></path><path d="M31.03 155.395c-0.565 0.192-1.224 0.401-1.977 0.628-0.751 0.233-1.326 0.407-1.724 0.521v0c-1.126 0.311-2.238 0.652-3.336 1.024v0c-0.822 0.279-1.664 0.601-2.528 0.966v0c1.196 0.339 2.154 0.819 2.873 1.441 0.722 0.628 1.269 1.491 1.641 2.589v0c0.272 0.802 0.17 1.671-0.307 2.606-0.486 0.931-1.17 1.657-2.053 2.179v0c-0.819 0.35-1.835 0.73-3.048 1.142v0c-0.777 0.264-1.777 0.65-3 1.158v0c-0.46 0.206-0.86 0.482-1.202 0.826-0.341 0.345-0.446 0.71-0.315 1.095v0c0.068 0.199 0.131 0.353 0.189 0.462 0.067 0.113 0.119 0.224 0.156 0.334v0c0.102 0.302 0.096 0.536-0.019 0.704-0.106 0.172-0.301 0.306-0.583 0.402v0c-0.52 0.176-0.997 0.048-1.429-0.384-0.44-0.431-0.733-0.861-0.879-1.291v0c-0.529-1.56-0.244-2.849 0.857-3.867v0c0.627-0.578 1.514-1.108 2.66-1.59 1.151-0.491 2.512-1.003 4.085-1.537v0c1.56-0.529 2.16-1.324 1.8-2.383v0c-0.198-0.584-0.706-1.067-1.522-1.448-0.819-0.388-1.799-0.606-2.94-0.656-1.132-0.045-2.241 0.116-3.325 0.484v0l-3.36 1.173c-0.475 0.161-0.887 0.097-1.236-0.192-0.349-0.29-0.579-0.598-0.69-0.926v0c-0.161-0.475-0.163-0.954-0.005-1.437 0.156-0.49 0.42-0.798 0.793-0.924v0c1.67-0.395 4.408-1.239 8.214-2.531v0c0.693-0.235 3.236-1.159 7.628-2.772v0l2.943-1.106c0.481-0.163 0.972-0.09 1.471 0.22 0.505 0.308 0.85 0.732 1.032 1.271v0c0.163 0.481 0.172 0.865 0.026 1.151-0.144 0.292-0.441 0.515-0.89 0.668z" fill="#ffffff" data-fill-palette-color="accent"></path><path d="M26.058 191.566c-0.437 0.246-0.938 0.22-1.501-0.076-0.558-0.301-0.948-0.649-1.171-1.045v0c-0.425-0.756-0.67-1.412-0.734-1.967-0.064-0.555 0.055-1.167 0.357-1.834v0c-0.744-0.258-1.484-0.771-2.22-1.54-0.732-0.762-1.311-1.522-1.737-2.278v0c-0.695-1.235-0.933-2.439-0.714-3.612 0.222-1.167 0.98-2.115 2.274-2.843v0c0.555-0.312 1.149-0.452 1.783-0.419 0.636 0.039 1.279 0.214 1.929 0.525v0c0.704 0.366 1.367 0.86 1.989 1.482 0.619 0.616 1.153 1.323 1.601 2.121v0c0.233 0.414 0.432 0.955 0.599 1.624 0.172 0.665 0.256 1.209 0.252 1.631v0l0.479-0.27c1.075-0.605 1.67-1.282 1.786-2.031 0.118-0.743-0.148-1.694-0.8-2.852v0c-0.189-0.337-0.448-0.631-0.776-0.882-0.319-0.248-0.717-0.514-1.195-0.797v0c-0.608-0.389-1.051-0.832-1.331-1.328v0c-0.103-0.183-0.074-0.421 0.088-0.715 0.158-0.299 0.338-0.505 0.539-0.618v0c0.573-0.322 1.222-0.33 1.947-0.022 0.729 0.313 1.409 0.79 2.042 1.43 0.638 0.637 1.125 1.253 1.46 1.85v0c0.336 0.597 0.606 1.347 0.812 2.25 0.205 0.904 0.249 1.715 0.132 2.434v0c-0.184 0.889-0.526 1.692-1.025 2.408-0.499 0.716-1.156 1.304-1.972 1.763v0c-0.26 0.146-0.659 0.343-1.195 0.591v0c-0.585 0.274-1.075 0.523-1.471 0.746v0c-0.177 0.1-0.458 0.23-0.841 0.392v0c-0.457 0.211-0.816 0.389-1.076 0.535v0c-0.236 0.133-0.39 0.336-0.462 0.61-0.066 0.27-0.03 0.527 0.106 0.768v0l0.495 0.818c0.123 0.219 0.138 0.432 0.045 0.64-0.093 0.208-0.258 0.378-0.494 0.511zM21.424 181.526c0.482 0.857 0.974 1.525 1.478 2.004 0.506 0.47 1.227 0.978 2.164 1.524v0c0.383-0.107 0.858-0.307 1.423-0.602v0c-0.095-1.385-0.344-2.436-0.746-3.15v0c-0.459-0.815-1.018-1.457-1.678-1.926-0.654-0.472-1.36-0.495-2.116-0.07v0c-0.378 0.213-0.607 0.552-0.688 1.017-0.08 0.465-0.026 0.866 0.163 1.203z" fill="#ffffff" data-fill-palette-color="accent"></path><path d="M37.746 189.855c-0.13-0.156-0.267-0.294-0.41-0.412-0.143-0.119-0.273-0.249-0.39-0.39v0c-0.16-0.193-0.224-0.444-0.191-0.754 0.038-0.314 0.128-0.53 0.268-0.647v0c0.453-0.377 0.996-0.446 1.629-0.205 0.637 0.246 1.153 0.606 1.547 1.081v0c0.334 0.401 0.545 0.931 0.635 1.588 0.085 0.653 0.005 1.262-0.239 1.827v0c0.919 0.002 1.779 0.235 2.578 0.698 0.805 0.459 1.507 1.048 2.106 1.766v0c0.672 0.808 1.041 1.77 1.108 2.888 0.066 1.118-0.124 2.203-0.572 3.255-0.438 1.053-1.045 1.902-1.822 2.548v0c-0.75 0.625-1.487 1.101-2.21 1.43-0.719 0.334-1.542 0.547-2.47 0.64v0c-1.017 0.071-2.043-0.107-3.077-0.534-1.039-0.432-1.996-1.174-2.872-2.227v0c-0.234-0.281-0.445-0.683-0.634-1.205-0.183-0.527-0.299-0.995-0.348-1.404v0c-1.297 0.868-2.383 1.666-3.259 2.395v0c-0.526 0.438-1.003 0.883-1.429 1.335v0c-0.537 0.5-0.927 0.851-1.172 1.055v0c-0.386 0.321-0.778 0.427-1.177 0.319-0.404-0.114-0.735-0.327-0.996-0.64v0c-0.529-0.636-0.707-1.193-0.532-1.673 0.175-0.489 0.577-0.997 1.207-1.522v0c1.567-1.19 3.035-2.262 4.402-3.214v0c1.665-1.21 4.147-3.187 7.445-5.933v0c0.318-0.265 0.599-0.605 0.844-1.02 0.255-0.415 0.265-0.763 0.031-1.044zM35.077 197.727c-0.26 0.366-0.328 0.846-0.204 1.439 0.128 0.599 0.331 1.065 0.608 1.399v0c0.828 0.995 1.719 1.515 2.674 1.559v0c0.689 0.044 1.266-0.031 1.731-0.225 0.46-0.189 1.094-0.62 1.902-1.292v0c0.636-0.529 1.065-1.094 1.288-1.694 0.229-0.605 0.297-1.164 0.204-1.678-0.092-0.523-0.268-0.941-0.528-1.254v0c-0.598-0.719-1.3-1.123-2.105-1.211-0.8-0.092-1.62 0.105-2.459 0.591v0c-0.657 0.397-1.694 1.186-3.111 2.366z" fill="#ffffff" data-fill-palette-color="accent"></path><path d="M50.665 204.204c-0.156-0.13-0.316-0.241-0.478-0.332-0.162-0.091-0.314-0.195-0.454-0.312v0c-0.193-0.16-0.301-0.396-0.325-0.707-0.019-0.316 0.03-0.544 0.146-0.685v0c0.377-0.453 0.899-0.619 1.565-0.497 0.671 0.126 1.244 0.387 1.718 0.781v0c0.401 0.334 0.705 0.816 0.912 1.447 0.202 0.626 0.234 1.24 0.097 1.84v0c0.904-0.165 1.792-0.092 2.662 0.218 0.875 0.305 1.672 0.756 2.392 1.354v0c0.808 0.672 1.346 1.552 1.614 2.639 0.268 1.087 0.278 2.189 0.028 3.305-0.24 1.115-0.682 2.06-1.328 2.836v0c-0.624 0.75-1.262 1.353-1.914 1.807-0.646 0.459-1.417 0.818-2.312 1.079v0c-0.988 0.254-2.029 0.265-3.124 0.034-1.1-0.236-2.176-0.792-3.228-1.668v0c-0.281-0.234-0.562-0.591-0.842-1.071-0.276-0.485-0.475-0.924-0.598-1.317v0c-1.118 1.089-2.041 2.072-2.769 2.947v0c-0.438 0.526-0.825 1.05-1.163 1.573v0c-0.437 0.589-0.757 1.006-0.961 1.25v0c-0.321 0.386-0.687 0.561-1.099 0.527-0.418-0.039-0.783-0.188-1.096-0.448v0c-0.636-0.529-0.912-1.045-0.828-1.549 0.083-0.513 0.387-1.085 0.912-1.715v0c1.325-1.455 2.573-2.775 3.745-3.961v0c1.418-1.492 3.499-3.888 6.243-7.186v0c0.264-0.318 0.479-0.703 0.645-1.157 0.175-0.454 0.122-0.798-0.16-1.032zM49.47 212.429c-0.189 0.407-0.169 0.892 0.061 1.453 0.235 0.566 0.519 0.987 0.853 1.265v0c0.995 0.828 1.966 1.177 2.912 1.047v0c0.686-0.082 1.24-0.261 1.662-0.536 0.418-0.269 0.963-0.808 1.635-1.615v0c0.529-0.636 0.849-1.269 0.959-1.9 0.115-0.636 0.08-1.199-0.104-1.688-0.185-0.498-0.434-0.877-0.747-1.137v0c-0.719-0.598-1.483-0.868-2.291-0.808-0.804 0.054-1.574 0.397-2.31 1.028v0c-0.574 0.51-1.451 1.474-2.63 2.891z" fill="#ffffff" data-fill-palette-color="accent"></path><path d="M59.166 233.871c-0.753-0.431-1.309-0.912-1.669-1.446-0.365-0.536-0.572-1.049-0.62-1.537-0.049-0.489 0.001-0.862 0.149-1.121v0c0.192-0.335 0.459-0.53 0.802-0.584 0.343-0.054 0.685 0.017 1.027 0.212v0c0.194 0.111 0.349 0.277 0.464 0.499 0.109 0.219 0.166 0.345 0.17 0.379v0c0.087 0.175 0.179 0.336 0.274 0.484 0.101 0.151 0.231 0.272 0.389 0.363v0c0.436 0.249 0.956 0.164 1.563-0.254 0.603-0.413 1.411-1.185 2.424-2.316v0c-0.142-1.814-0.135-3.548 0.021-5.2v0l0.209-1.965c0.04-0.289 0.123-1.062 0.248-2.318 0.125-1.256 0.191-2.397 0.199-3.423v0c0.04-0.711 0.117-1.167 0.231-1.367v0c0.283-0.494 0.665-0.76 1.147-0.797 0.485-0.043 0.954 0.065 1.407 0.324v0c0.318 0.182 0.525 0.386 0.622 0.613 0.091 0.224 0.149 0.565 0.175 1.026v0c0.032 1.283-0.16 3.067-0.575 5.351v0c-0.222 1.318-0.377 2.326-0.465 3.026-0.082 0.703-0.12 1.439-0.113 2.207v0c0.776-0.579 1.956-1.654 3.54-3.224v0c0.924-0.893 1.675-1.599 2.254-2.12 0.576-0.53 1.145-0.985 1.707-1.367v0c0.382-0.258 0.77-0.419 1.165-0.481 0.389-0.066 0.752-0.004 1.087 0.188v0c0.341 0.195 0.633 0.526 0.874 0.991 0.247 0.469 0.275 0.872 0.083 1.207v0c-0.114 0.2-0.321 0.398-0.62 0.594v0c-1.79 1.343-3.427 2.636-4.912 3.881-1.487 1.235-3.033 2.643-4.639 4.223v0c-0.92 0.872-1.824 1.682-2.713 2.431-0.892 0.755-1.471 1.201-1.737 1.338v0c-0.711 0.328-1.419 0.536-2.125 0.625-0.703 0.082-1.384-0.065-2.043-0.442z" fill="#ffffff" data-fill-palette-color="accent"></path><path d="M87.86 231.514c0.234-0.835 0.623-1.631 1.165-2.388 0.545-0.763 1.167-1.426 1.868-1.99v0c0.705-0.556 1.669-0.905 2.891-1.047 1.225-0.149 2.268-0.103 3.13 0.138v0c0.875 0.245 1.734 0.62 2.578 1.124 0.846 0.498 1.375 1.047 1.586 1.648v0c0.489 1.369 0.58 2.602 0.273 3.699v0c-0.167 0.594-0.432 1.065-0.797 1.413-0.372 0.346-0.857 0.696-1.456 1.049v0c-0.484 0.294-1.145 0.394-1.985 0.299-0.839-0.095-1.654-0.252-2.444-0.474v0c-0.509-0.143-1.112-0.365-1.809-0.665-0.697-0.301-1.363-0.625-1.998-0.972v0c-0.079 0.457-0.089 0.919-0.029 1.386 0.053 0.465 0.169 0.84 0.35 1.122v0c0.327 0.542 0.71 0.935 1.149 1.178 0.445 0.245 1.04 0.471 1.784 0.679v0c0.79 0.221 1.564 0.298 2.322 0.229v0c0.605-0.049 1.084-0.024 1.437 0.075v0c0.418 0.117 0.699 0.333 0.842 0.648 0.151 0.317 0.171 0.671 0.061 1.063v0c-0.156 0.555-0.602 0.916-1.338 1.082-0.732 0.175-1.536 0.231-2.413 0.168-0.868-0.067-1.554-0.172-2.056-0.312v0c-1.031-0.289-1.981-0.756-2.849-1.401-0.86-0.649-1.511-1.402-1.954-2.258v0c-0.357-0.762-0.567-1.62-0.63-2.574-0.063-0.954 0.044-1.927 0.322-2.919zM96.282 229.08c-0.483-0.135-0.992-0.179-1.525-0.132-0.536 0.054-1.003 0.201-1.402 0.442v0c-0.509 0.308-0.871 0.569-1.085 0.783-0.215 0.214-0.407 0.534-0.575 0.958v0c0.499 0.33 1.616 0.738 3.352 1.225v0c0.946 0.265 1.718 0.327 2.314 0.184 0.594-0.136 0.956-0.436 1.087-0.899v0c0.13-0.463-0.037-0.961-0.501-1.492-0.47-0.533-1.025-0.889-1.664-1.069z" fill="#ffffff" data-fill-palette-color="accent"></path><path d="M109.525 238.353c-0.118 0.86-0.081 1.539 0.111 2.037 0.198 0.499 0.503 0.777 0.912 0.833v0c0.222 0.03 0.439 0.043 0.652 0.038 0.206-0.006 0.41 0.005 0.611 0.033v0c0.228 0.031 0.411 0.173 0.548 0.424 0.138 0.245 0.187 0.505 0.15 0.78v0c-0.074 0.544-0.384 0.933-0.93 1.165-0.552 0.232-1.258 0.29-2.117 0.172v0c-0.611-0.084-1.204-0.353-1.778-0.808-0.566-0.461-1-1.119-1.3-1.974-0.293-0.861-0.357-1.889-0.193-3.085v0c0.353-2.579 0.696-4.756 1.028-6.53v0c0.405-2.107 0.829-4.779 1.272-8.016v0c0.139-1.014 0.293-1.718 0.464-2.112v0c0.178-0.297 0.429-0.509 0.754-0.636 0.333-0.132 0.667-0.175 1.003-0.129v0c0.343 0.047 0.637 0.145 0.883 0.295 0.24 0.149 0.389 0.354 0.45 0.616v0c0.051 0.281 0.075 0.554 0.072 0.821-0.002 0.267-0.036 0.638-0.101 1.115v0c-0.127 0.927-0.283 1.815-0.468 2.666v0c-0.189 1.028-0.316 1.78-0.381 2.257v0c-0.72 3.959-1.267 7.305-1.642 10.038z" fill="#ffffff" data-fill-palette-color="accent"></path><path d="M117.421 236.991c0.001-0.868 0.161-1.739 0.481-2.613 0.319-0.881 0.741-1.687 1.263-2.418v0c0.529-0.725 1.364-1.321 2.503-1.788 1.139-0.473 2.156-0.71 3.051-0.708v0c0.908 0.001 1.837 0.131 2.786 0.389 0.949 0.252 1.606 0.639 1.972 1.161v0c0.839 1.187 1.259 2.35 1.257 3.489v0c-0.001 0.617-0.13 1.142-0.388 1.575-0.265 0.434-0.638 0.901-1.12 1.403v0c-0.387 0.413-0.997 0.687-1.831 0.821-0.834 0.135-1.661 0.202-2.481 0.201v0c-0.529-0.001-1.169-0.052-1.922-0.154-0.752-0.102-1.481-0.235-2.185-0.399v0c0.047 0.461 0.162 0.909 0.344 1.343 0.176 0.434 0.389 0.763 0.64 0.987v0c0.461 0.434 0.935 0.709 1.422 0.825 0.495 0.116 1.129 0.174 1.902 0.175v0c0.82 0.001 1.586-0.134 2.298-0.405v0c0.57-0.21 1.037-0.314 1.404-0.314v0c0.434 0 0.762 0.133 0.986 0.398 0.23 0.265 0.345 0.6 0.344 1.007v0c-0.001 0.576-0.333 1.044-0.998 1.402-0.658 0.365-1.417 0.636-2.278 0.811-0.854 0.169-1.542 0.253-2.064 0.252v0c-1.071-0.001-2.111-0.195-3.121-0.582-1.003-0.394-1.833-0.944-2.49-1.65v0c-0.548-0.638-0.982-1.408-1.299-2.309-0.318-0.902-0.476-1.868-0.476-2.899zM124.879 232.382c-0.502 0-1.003 0.094-1.505 0.283-0.502 0.196-0.912 0.463-1.231 0.802v0c-0.407 0.433-0.685 0.782-0.835 1.047-0.149 0.264-0.248 0.623-0.296 1.077v0c0.569 0.184 1.755 0.276 3.559 0.278v0c0.983 0.001 1.742-0.147 2.278-0.445 0.536-0.291 0.804-0.677 0.804-1.158v0c0-0.481-0.294-0.915-0.883-1.303-0.596-0.387-1.226-0.581-1.891-0.581z" fill="#ffffff" data-fill-palette-color="accent"></path><path d="M147.364 230.153c0.167 0.996-0.258 1.579-1.274 1.75v0c-0.334 0.056-0.629 0.023-0.882-0.1-0.254-0.122-0.541-0.318-0.862-0.588v0c-0.8-0.629-1.447-0.902-1.941-0.819v0c-0.655 0.11-1.258 0.407-1.81 0.891-0.557 0.492-0.968 1.117-1.232 1.877-0.265 0.759-0.325 1.567-0.182 2.422v0c0.159 0.949 0.475 1.707 0.948 2.274 0.48 0.566 1.152 1.01 2.018 1.333v0c0.313 0.106 0.675 0.172 1.085 0.199 0.409 0.021 0.761 0.007 1.054-0.042v0c0.655-0.11 1.434-0.505 2.338-1.186v0c0.331-0.241 0.612-0.429 0.844-0.564 0.233-0.128 0.483-0.215 0.75-0.26v0c0.247-0.041 0.547 0.025 0.9 0.2 0.351 0.168 0.555 0.422 0.612 0.764v0c0.113 0.675-0.106 1.296-0.657 1.862-0.551 0.567-1.265 1.044-2.142 1.431-0.87 0.386-1.723 0.649-2.558 0.79v0c-1.324 0.222-2.604 0.127-3.842-0.284-1.238-0.418-2.285-1.105-3.14-2.062-0.854-0.957-1.395-2.11-1.621-3.461v0c-0.242-1.444-0.138-2.815 0.311-4.114 0.455-1.306 1.177-2.39 2.167-3.25 0.99-0.86 2.137-1.399 3.441-1.618v0c0.742-0.124 1.531-0.116 2.365 0.027 0.834 0.135 1.565 0.418 2.194 0.849 0.628 0.424 1 0.984 1.116 1.679z" fill="#ffffff" data-fill-palette-color="accent"></path><path d="M153.973 227.909l-1.609 0.382c-0.317 0.055-0.601 0.006-0.852-0.147-0.259-0.157-0.438-0.387-0.538-0.69v0c-0.051-0.154-0.067-0.331-0.047-0.53 0.02-0.199 0.082-0.388 0.188-0.566v0c0.19-0.377 0.902-0.769 2.138-1.178v0c-0.105-0.901-0.301-1.785-0.589-2.654v0c-0.106-0.322-0.212-0.598-0.316-0.827-0.098-0.232-0.168-0.412-0.211-0.541v0c-0.157-0.476-0.095-0.893 0.187-1.25 0.275-0.355 0.641-0.608 1.098-0.76v0c0.56-0.185 0.989-0.173 1.286 0.036 0.3 0.215 0.575 0.702 0.826 1.461v0c0.372 1.126 0.641 2.262 0.805 3.408v0c0.348-0.115 0.817-0.292 1.41-0.531v0c0.809-0.317 1.397-0.537 1.764-0.658v0c0.373-0.123 0.725-0.14 1.054-0.048 0.332 0.097 0.552 0.31 0.661 0.638v0c0.279 0.843 0.063 1.464-0.648 1.863v0c-0.739 0.465-1.944 1-3.615 1.602v0c0.214 0.864 0.486 1.795 0.817 2.793v0c0.515 1.558 1.034 2.803 1.556 3.737v0c0.359 0.653 0.748 1.084 1.168 1.296 0.418 0.205 0.938 0.204 1.562-0.003v0c0.373-0.123 0.721-0.345 1.044-0.666v0c0.215-0.235 0.429-0.388 0.641-0.458v0c0.309-0.102 0.563-0.079 0.762 0.069 0.205 0.146 0.362 0.384 0.471 0.712v0c0.2 0.605 0.041 1.214-0.478 1.828-0.518 0.614-1.286 1.089-2.302 1.426v0c-0.631 0.209-1.315 0.267-2.052 0.175-0.737-0.092-1.4-0.294-1.989-0.607v0c-0.086-0.043-0.287-0.252-0.603-0.625-0.316-0.374-0.622-0.79-0.916-1.25v0c-0.549-0.947-1.127-2.34-1.736-4.181v0c-0.266-0.805-0.578-1.89-0.937-3.256z" fill="#ffffff" data-fill-palette-color="accent"></path><path d="M174.972 230.498c0.174 0.352 0.193 0.725 0.055 1.119-0.135 0.4-0.397 0.696-0.786 0.888v0c-0.614 0.304-1.122 0.408-1.524 0.313-0.4-0.089-0.758-0.453-1.074-1.091v0c-0.373-0.753-0.885-1.733-1.535-2.939v0c-0.551-1.006-0.998-1.855-1.341-2.547v0c-0.162-0.328-0.355-0.77-0.577-1.326v0c-0.198-0.507-0.359-0.885-0.482-1.134v0c-0.253-0.359-0.568-0.604-0.943-0.736-0.369-0.135-0.748-0.106-1.137 0.087v0c-0.182 0.09-0.378 0.077-0.587-0.039-0.212-0.107-0.363-0.252-0.453-0.434v0c-0.235-0.474-0.221-0.927 0.042-1.359 0.253-0.436 0.644-0.784 1.173-1.046v0c1.106-0.548 2.199-0.272 3.28 0.827v0c0.231-0.878 0.593-1.674 1.087-2.388 0.497-0.723 1.064-1.242 1.702-1.558v0c0.753-0.373 1.545-0.508 2.375-0.405 0.821 0.1 1.403 0.497 1.746 1.189v0c0.193 0.389 0.224 0.872 0.095 1.451-0.139 0.575-0.381 0.949-0.728 1.121v0c-0.182 0.09-0.363 0.123-0.541 0.098-0.179-0.025-0.406-0.086-0.681-0.185v0c-0.306-0.098-0.551-0.158-0.736-0.18-0.194-0.025-0.382 0.008-0.565 0.098v0c-0.328 0.162-0.609 0.366-0.843 0.611-0.24 0.248-0.373 0.468-0.399 0.662v0c-0.075 0.673-0.088 1.25-0.038 1.732 0.047 0.491 0.186 0.971 0.417 1.439v0c0.171 0.346 0.299 0.627 0.384 0.843v0l0.839 1.763c0.132 0.267 0.287 0.557 0.465 0.87 0.181 0.319 0.324 0.555 0.429 0.707v0c0.335 0.523 0.628 1.039 0.881 1.549z" fill="#ffffff" data-fill-palette-color="accent"></path><path d="M190.58 209.242c0.333 0.156 0.721 0.451 1.165 0.885 0.435 0.432 0.79 0.845 1.066 1.239v0c0.509 0.728 1.076 1.874 1.7 3.44v0c0.359 3.257-0.725 5.769-3.252 7.538v0c-0.933 0.653-2.101 1.011-3.505 1.074-1.403 0.064-2.576-0.175-3.517-0.716v0c-1.623-1.255-2.586-2.1-2.889-2.533v0c-0.521-0.744-0.915-1.651-1.184-2.721-0.259-1.068-0.352-2.087-0.277-3.057v0c0.013-0.655 0.327-1.424 0.94-2.309 0.604-0.886 1.243-1.564 1.915-2.035v0c1.311-0.917 2.597-1.449 3.86-1.596 1.266-0.141 2.592 0.122 3.978 0.791zM191.299 215.465c-0.073-0.305-0.463-0.963-1.17-1.973v0c-0.381-0.544-0.854-1.008-1.42-1.39-0.56-0.386-1.158-0.638-1.794-0.755v0c-0.066-0.012-0.212-0.001-0.436 0.032-0.23 0.037-0.519 0.115-0.867 0.234-0.347 0.119-0.707 0.308-1.078 0.569v0c-1.05 0.735-1.526 1.692-1.428 2.873 0.108 1.182 0.534 2.307 1.281 3.373v0c0.128 0.183 0.427 0.504 0.896 0.961 0.471 0.448 0.789 0.714 0.954 0.797v0c0.15 0.085 0.424 0.163 0.821 0.233 0.397 0.07 0.829 0.073 1.297 0.01 0.469-0.063 0.892-0.227 1.27-0.491v0c0.839-0.587 1.371-1.257 1.596-2.011 0.226-0.754 0.251-1.574 0.078-2.462z" fill="#ffffff" data-fill-palette-color="accent"></path><path d="M211.339 200.144c0.109-0.055 0.278-0.147 0.506-0.276 0.223-0.134 0.396-0.216 0.52-0.248 0.129-0.036 0.242-0.007 0.339 0.087v0c0.414 0.361 0.601 0.818 0.559 1.37-0.037 0.547-0.253 1.026-0.648 1.437v0c-0.616 0.64-1.268 0.976-1.958 1.008-0.699 0.033-1.481-0.211-2.344-0.731v0c-0.344-0.2-0.763-0.537-1.257-1.011v0c-0.278-0.268-0.714-0.72-1.306-1.356v0c-0.627-0.669-1.138-1.193-1.534-1.574v0c-0.576-0.555-1.237-0.88-1.982-0.975-0.74-0.101-1.388 0.137-1.942 0.713v0c-0.334 0.347-0.579 0.807-0.736 1.381-0.161 0.578-0.164 1.084-0.006 1.517v0c0.234 0.705 0.585 1.377 1.053 2.015v0c0.813 1.13 1.754 2.21 2.824 3.239v0c0.508 0.489 0.908 0.86 1.201 1.113v0c0.068 0.066 0.2 0.183 0.395 0.352 0.2 0.174 0.357 0.357 0.471 0.552 0.119 0.189 0.197 0.397 0.235 0.621v0c0.003 0.163-0.048 0.358-0.154 0.585-0.115 0.228-0.244 0.415-0.385 0.562v0c-0.221 0.23-0.596 0.424-1.125 0.582-0.529 0.159-0.942 0.143-1.238-0.048v0l-0.439-0.38c-0.147-0.141-0.304-0.325-0.471-0.551v0c-0.96-1.3-1.87-2.363-2.729-3.191v0c-0.376-0.362-0.679-0.639-0.908-0.831v0l-1.186-1.085c-0.396-0.381-0.873-0.652-1.432-0.813-0.559-0.152-0.963-0.099-1.213 0.16v0c-0.08 0.083-0.166 0.226-0.257 0.429-0.082 0.203-0.171 0.353-0.265 0.451v0c-0.16 0.166-0.41 0.264-0.749 0.295-0.349 0.031-0.614-0.041-0.796-0.215v0c-0.347-0.334-0.517-0.719-0.511-1.155v0c0.044-0.437 0.121-0.829 0.229-1.177 0.118-0.347 0.327-0.678 0.628-0.99v0c0.254-0.264 0.485-0.455 0.694-0.574 0.204-0.114 0.525-0.233 0.964-0.357v0c0.224-0.067 0.569-0.064 1.035 0.009 0.471 0.068 1.024 0.28 1.66 0.637v0c-0.378-1.182-0.422-2.245-0.134-3.191 0.284-0.94 0.9-1.904 1.85-2.89v0c0.367-0.381 0.884-0.669 1.551-0.864 0.667-0.195 1.315-0.291 1.943-0.29v0c0.648 0.05 1.333 0.233 2.053 0.55 0.73 0.317 1.308 0.679 1.733 1.089v0c0.249 0.24 0.636 0.645 1.159 1.214v0c0.398 0.477 0.843 0.952 1.337 1.427v0c1.153 1.109 2.075 1.568 2.766 1.378z" fill="#ffffff" data-fill-palette-color="accent"></path><path d="M200.781 182.266c0.535-0.6 1.121-1.035 1.758-1.306 0.634-0.266 1.234-0.189 1.802 0.229v0c0.426 0.314 0.616 0.757 0.572 1.331-0.043 0.583-0.267 1.151-0.673 1.702v0c-0.39 0.529-0.799 0.792-1.226 0.789-0.422 0.001-0.78-0.107-1.074-0.324v0c-0.551-0.406-0.97-0.803-1.257-1.192-0.277-0.39-0.245-0.799 0.098-1.229zM209.662 185.401l4.96 3.655 0.802 0.591c0.715 0.527 1.405 1.002 2.07 1.425 0.665 0.423 1.348 0.833 2.049 1.232v0c0.169 0.159 0.255 0.436 0.257 0.833 0.002 0.397-0.071 0.697-0.221 0.899v0c-0.257 0.349-0.585 0.651-0.982 0.905-0.402 0.26-0.732 0.353-0.991 0.281v0c-0.67-0.325-1.234-0.657-1.692-0.995v0c-1.506-1.11-3.229-2.308-5.169-3.595v0c-1.711-1.152-2.897-1.971-3.557-2.457v0c-0.327-0.241-0.491-0.614-0.49-1.118 0.005-0.51 0.143-0.948 0.412-1.314v0c0.394-0.535 0.79-0.82 1.187-0.856 0.397-0.036 0.852 0.135 1.365 0.514z" fill="#ffffff" data-fill-palette-color="accent"></path><path d="M219.666 170.675c0.888 0.481 1.087 1.174 0.597 2.08v0c-0.161 0.298-0.368 0.51-0.621 0.636-0.253 0.125-0.584 0.231-0.993 0.318v0c-0.988 0.244-1.601 0.587-1.839 1.028v0c-0.316 0.584-0.453 1.243-0.41 1.975 0.046 0.742 0.287 1.45 0.723 2.125 0.436 0.675 1.036 1.219 1.799 1.632v0c0.847 0.458 1.639 0.675 2.377 0.651 0.741-0.031 1.505-0.288 2.291-0.773v0c0.276-0.182 0.551-0.427 0.824-0.733 0.268-0.31 0.473-0.596 0.615-0.858v0c0.316-0.584 0.483-1.442 0.501-2.573v0c0.013-0.409 0.038-0.746 0.074-1.012 0.042-0.263 0.127-0.513 0.256-0.751v0c0.119-0.221 0.356-0.416 0.711-0.587 0.348-0.174 0.675-0.178 0.979-0.014v0c0.602 0.326 0.957 0.88 1.065 1.663 0.108 0.783 0.046 1.639-0.188 2.569-0.23 0.924-0.547 1.758-0.95 2.504v0c-0.639 1.18-1.501 2.132-2.585 2.855-1.091 0.72-2.276 1.123-3.556 1.209-1.28 0.086-2.522-0.197-3.726-0.848v0c-1.288-0.697-2.306-1.621-3.054-2.774-0.751-1.162-1.162-2.397-1.232-3.707-0.07-1.31 0.21-2.546 0.839-3.708v0c0.358-0.662 0.85-1.278 1.475-1.85 0.619-0.574 1.292-0.977 2.018-1.208 0.72-0.235 1.391-0.184 2.01 0.151z" fill="#ffffff" data-fill-palette-color="accent"></path><path d="M228.337 157.927c0.169-0.135 0.49-0.403 0.962-0.804 0.465-0.404 0.923-0.624 1.374-0.66 0.444-0.038 1.012 0.064 1.702 0.307v0c0.774 0.272 1.38 0.736 1.818 1.392 0.435 0.663 0.688 1.406 0.759 2.228v0c0.055 0.601 0.016 1.295-0.117 2.082-0.133 0.787-0.275 1.398-0.428 1.833v0c-0.15 0.429-0.409 0.959-0.775 1.592-0.366 0.633-0.649 1.062-0.85 1.286v0c-0.617 0.53-1.293 0.94-2.026 1.228-0.725 0.284-1.378 0.324-1.961 0.12v0c-0.435-0.153-0.726-0.409-0.872-0.77-0.151-0.369-0.146-0.781 0.013-1.234v0c0.074-0.211 0.233-0.407 0.476-0.588 0.243-0.181 0.467-0.285 0.671-0.314v0c0.646-0.039 1.208-0.291 1.687-0.754 0.47-0.46 0.808-0.981 1.012-1.563v0c0.265-0.755 0.389-1.498 0.374-2.229-0.023-0.734-0.248-1.176-0.677-1.326v0c-0.198-0.07-0.372-0.077-0.521-0.022-0.155 0.053-0.327 0.144-0.515 0.272v0c-0.325 0.231-0.661 0.623-1.006 1.177-0.352 0.552-0.58 0.906-0.686 1.063v0c-0.502 0.815-1.095 1.573-1.779 2.275v0c-0.706 0.701-1.427 1.198-2.163 1.493-0.732 0.303-1.539 0.3-2.421-0.01v0c-0.582-0.204-1.113-0.635-1.594-1.292-0.489-0.653-0.767-1.293-0.835-1.921v0c-0.017-0.444 0.049-1.154 0.198-2.129 0.148-0.975 0.28-1.626 0.395-1.952v0c0.173-0.492 0.413-1.012 0.719-1.558 0.3-0.548 0.609-0.936 0.926-1.162v0c0.55-0.461 1.077-0.807 1.582-1.039 0.505-0.232 0.995-0.265 1.468-0.099v0c0.237 0.083 0.471 0.223 0.704 0.42 0.23 0.203 0.354 0.394 0.371 0.571v0c0.035 0.371-0.024 0.775-0.177 1.21v0c-0.067 0.192-0.177 0.329-0.328 0.413-0.149 0.077-0.376 0.17-0.68 0.278v0c-0.448 0.109-0.742 0.26-0.882 0.456v0c-0.154 0.233-0.366 0.583-0.637 1.048-0.269 0.459-0.434 0.775-0.495 0.947v0c-0.175 0.499-0.217 1.059-0.126 1.68 0.095 0.63 0.325 1.009 0.689 1.136v0c0.198 0.07 0.381 0.04 0.548-0.087 0.158-0.124 0.314-0.26 0.467-0.408 0.148-0.156 0.246-0.262 0.294-0.317v0c0.371-0.38 0.729-0.818 1.076-1.314 0.347-0.496 0.562-0.801 0.645-0.916v0c0.69-1.065 1.231-1.745 1.621-2.039z" fill="#ffffff" data-fill-palette-color="accent"></path><path d="M3.492 125.519c0-4.875 3.952-8.827 8.827-8.827 4.875 0 8.827 3.952 8.827 8.827 0 4.875-3.952 8.827-8.827 8.827-4.875 0-8.827-3.952-8.827-8.827z" fill="#ffffff" data-fill-palette-color="accent"></path><path d="M224.128 125.519c0-4.875 3.952-8.827 8.827-8.827 4.875 0 8.827 3.952 8.827 8.827 0 4.875-3.952 8.827-8.827 8.827-4.875 0-8.827-3.952-8.827-8.827z" fill="#ffffff" data-fill-palette-color="accent"></path></g><g id="text-1"></g></svg></g></svg></g></svg></g><defs></defs></svg><rect width="395.5199999999999" height="144.6971853764797" fill="none" stroke="none" visibility="hidden"></rect></g></svg></g></svg>