<svg xmlns="http://www.w3.org/2000/svg" version="1.1" xmlns:xlink="http://www.w3.org/1999/xlink" xmlns:svgjs="http://svgjs.dev/svgjs" width="128" height="128" viewBox="0 0 128 128"><g transform="matrix(0.8046875,0,0,0.8046875,12.749624614638215,12.760752631578946)"><svg viewBox="0 0 95 95" data-background-color="#ffffff" preserveAspectRatio="xMidYMid meet" height="128" width="128" xmlns="http://www.w3.org/2000/svg" xmlns:xlink="http://www.w3.org/1999/xlink"><g id="tight-bounds" transform="matrix(1,0,0,1,-0.23023629505466658,-0.24049999999999727)"><svg viewBox="0 0 95.46047259010932 95.481" height="95.481" width="95.46047259010932"><g><svg viewBox="0 0 95.46047259010932 95.481" height="95.481" width="95.46047259010932"><g><svg viewBox="0 0 95.46047259010932 95.481" height="95.481" width="95.46047259010932"><g id="textblocktransform"><svg viewBox="0 0 95.46047259010932 95.481" height="95.481" width="95.46047259010932" id="textblock"><g><svg viewBox="0 0 95.46047259010932 95.481" height="95.481" width="95.46047259010932"><g><svg viewBox="0 0 95.46047259010932 95.481" height="95.481" width="95.46047259010932"><g><svg xmlns="http://www.w3.org/2000/svg" xmlns:xlink="http://www.w3.org/1999/xlink" version="1.1" x="0" y="0" viewBox="6.690242120899824 6.690642080658404 86.6267300794872 86.64535791934158" enable-background="new 0 0 100 100" xml:space="preserve" height="95.481" width="95.46047259010932" class="icon-icon-0" data-fill-palette-color="accent" id="icon-0"><g fill="#8b3c7f" data-fill-palette-color="accent"><path d="M86.732 27.036C74.071 6.782 47.293 0.605 27.037 13.266 6.782 25.927 0.604 52.707 13.266 72.963c6.133 9.812 15.721 16.647 26.996 19.249 3.263 0.752 6.553 1.124 9.82 1.124 8.024 0 15.907-2.244 22.88-6.603 5.863-3.666 10.811-8.727 14.307-14.634 0.281-0.476 0.124-1.089-0.351-1.37-0.478-0.282-1.09-0.124-1.37 0.351-3.382 5.714-7.973 10.41-13.646 13.958-2.79 1.744-5.735 3.124-8.776 4.149v-19.57c0-3.473-9.5-3.473-9.5 0v21.552c-4.27 0.372-8.617 0.085-12.914-0.906-10.755-2.48-19.899-9.001-25.75-18.36-4.026-6.441-6.045-13.574-6.245-20.67 0.067 0.091 0.136 0.182 0.226 0.265 1.228 1.134 3.723 1.392 5.111 1.446 0.504 5.789 1.69 14.05 4.479 19.493l0.167 0.327 0.34 0.141c0.138 0.058 1.06 0.43 2.629 0.873v4.266h4.354v-3.295c2.287 0.392 5.051 0.691 8.202 0.691 2.714 0 5.714-0.229 8.917-0.802v3.405h4.354v-4.377c0.824-0.223 1.655-0.461 2.5-0.733l0.358-0.116 0.193-0.323c0.158-0.265 3.401-5.87 4.106-19.539 1.298-0.029 4.085-0.238 5.406-1.457 0.453-0.419 0.622-0.966 0.462-1.501-0.121-0.404-0.495-1.618-5.735-2.536 0-0.407 0-0.814-0.005-1.232h-0.018c0-0.073 0.009-0.144-0.009-0.218-0.521-2.21-2.21-3.271-2.281-3.315-0.024-0.015-0.054-0.018-0.079-0.031-1.897-2.538-5.929-4.503-11.215-5.46-1.408-2.103-3.803-3.49-6.517-3.49-2.642 0-4.978 1.317-6.399 3.326-5.747 0.877-10.322 3.003-12.284 5.731-0.001 0.001-0.001 0.004-0.002 0.005-2.237 1.5-2.326 3.042-2.293 3.503 0.002 0.134 0.01 0.578 0.034 1.27-3.49 0.663-4.617 1.455-5.013 1.986 0.096-7.491 2.218-14.873 6.175-21.286 0.355 0.947 1.461 3.696 2.755 4.99l0.292 0.293h46.994l0.293-0.292c1.49-1.488 2.729-4.902 2.864-5.287l0.067-0.19-0.716-12.421L64.97 12.45H32.778c18.587-8.54 41.134-2.149 52.259 15.646 2.058 3.291 3.609 6.824 4.661 10.483l-7.142-0.583c-0.096-2.459-1.983-4.538-4.5-4.771l-3.784-0.351c-1.333-0.126-2.621 0.278-3.646 1.129-0.902 0.75-1.477 1.776-1.69 2.915-2.943 0.086-4.195 3.05-4.271 3.245-0.148 0.468-3.661 11.495-4.271 15.277-0.26 1.61-0.026 2.919 0.692 3.89 0.862 1.162 2.082 1.359 2.219 1.378l0.12 0.009c0.027 0 0.491 0.007 1.28 0.018 0.371 1.738 1.915 3.047 3.762 3.047h0.352v2.956c-2.142 0.461-3.754 2.366-3.754 4.644v4.053c0 2.622 2.133 4.756 4.754 4.756s4.754-2.134 4.754-4.756v-4.053c0-2.277-1.612-4.183-3.754-4.644v-2.956h0.602c1.803 0 3.309-1.25 3.726-2.927 4.387 0.042 9.339 0.077 13.611 0.077 0.371 0 0.716-0.001 1.075-0.002-0.083 0.305-0.155 0.611-0.246 0.914-0.158 0.529 0.143 1.086 0.672 1.244 0.529 0.154 1.085-0.144 1.244-0.672C95.067 50.484 93.329 37.589 86.732 27.036zM58.375 68.972c1.462 0 2.39 0.399 2.683 0.646-0.294 0.245-1.222 0.645-2.683 0.645s-2.389-0.399-2.683-0.645C55.985 69.371 56.913 68.972 58.375 68.972zM55.625 71.798c0.813 0.302 1.779 0.464 2.75 0.464s1.938-0.162 2.75-0.464v18.008c-1.807 0.508-3.645 0.886-5.5 1.14V71.798zM15.719 47.452c1.131 0.215 2.26 0.414 3.386 0.593 0.086 3.222 0.589 14.859 3.407 23.868-1.137-0.304-1.948-0.577-2.37-0.729C16.616 63.954 15.87 51.398 15.719 47.452zM16.866 44.591c1.798 0.251 9.496 1.247 18.648 1.247 5.955 0 11.395-0.415 16.176-1.232 0.216 0.19 0.52 0.509 0.77 0.961-2.256 0.573-8.188 1.826-16.917 1.826-6.32 0-12.902-0.646-19.582-1.923C16.134 45.223 16.415 44.921 16.866 44.591zM24.795 72.451c-2.931-8.475-3.553-20.377-3.678-24.106 0.473 0.066 0.947 0.138 1.418 0.198 0.109 3.498 0.707 16.535 3.64 24.168C25.693 72.628 25.23 72.541 24.795 72.451zM24.023 76.043h-0.354v-1.761c0.115 0.026 0.235 0.053 0.354 0.078V76.043zM45.496 76.043h-0.354v-1.805c0.119-0.026 0.235-0.048 0.354-0.074V76.043zM48.994 71.152c-8.061 2.528-15.269 2.537-20.508 1.898-3.081-6.771-3.793-20.288-3.938-24.274 3.727 0.406 7.402 0.617 10.995 0.617 8.8 0 14.75-1.213 17.237-1.84C52.776 62.503 49.743 69.631 48.994 71.152zM54.736 50.953c0.015-0.479 0.027-0.966 0.036-1.463 1.312 0.253 2.573 0.601 3.309 0.902C57.217 50.743 55.851 50.918 54.736 50.953zM34.663 35.713c2.949 0 5.395 2.198 5.785 5.063-2.022 0.388-4.075 0.583-6.114 0.583-2.23 0-4.111-0.237-5.472-0.485C29.199 37.973 31.672 35.713 34.663 35.713zM26.842 42.499l0.771 0.167c1.464 0.317 3.819 0.695 6.72 0.695 0 0 0 0 0 0 2.465 0 4.949-0.27 7.381-0.802l0.786-0.201v-0.805c0-0.729-0.107-1.431-0.294-2.101 3.29 0.757 6.009 1.977 7.656 3.419-4.303 0.641-9.118 0.966-14.349 0.966-7.394 0-13.8-0.657-16.845-1.029 1.81-1.554 4.849-2.828 8.498-3.55-0.223 0.727-0.344 1.497-0.344 2.295L26.842 42.499zM13.812 49.574c0.024 0.424 0.052 0.877 0.085 1.362-1.038-0.059-2.204-0.231-2.976-0.545C11.577 50.122 12.655 49.816 13.812 49.574zM65.507 16.735l0.571 9.885H16.774l0.073-1.265c0.505-0.681 1.028-1.349 1.577-2.001 0.439 0.817 1.292 1.381 2.282 1.381 1.433 0 2.599-1.167 2.599-2.601 0-1.036-0.614-1.925-1.493-2.342 1.159-1.081 2.393-2.1 3.695-3.057H65.507zM21.305 22.134c0 0.331-0.269 0.601-0.599 0.601-0.331 0-0.6-0.27-0.6-0.601 0-0.331 0.269-0.599 0.6-0.599C21.037 21.535 21.305 21.804 21.305 22.134zM64.061 31.533H18.79c-0.587-0.734-1.173-1.927-1.6-2.913h48.472C65.235 29.606 64.649 30.798 64.061 31.533zM64.046 14.45l0.242 0.285H28.481c0.16-0.098 0.322-0.19 0.483-0.285H64.046zM67.064 75.434v-4.053c0-1.165 0.729-2.157 1.754-2.56v9.173C67.794 77.593 67.064 76.6 67.064 75.434zM72.572 71.381v4.053c0 1.166-0.729 2.159-1.754 2.561v-9.173C71.843 69.224 72.572 70.216 72.572 71.381zM91.302 49.334H74.244c-0.168-0.243-0.626-1.169-0.712-4.114h17.495C91.186 46.585 91.279 47.958 91.302 49.334zM90.246 40.697L67.482 39.56c0.438-0.387 1.028-0.699 1.808-0.638l20.941 1.708C90.237 40.652 90.241 40.674 90.246 40.697zM74.088 34.866l3.784 0.351c1.425 0.132 2.523 1.251 2.688 2.618l-9.621-0.785c0.16-0.586 0.489-1.111 0.967-1.507C72.519 35.033 73.282 34.788 74.088 34.866zM66.337 41.505l24.325 1.214c0.03 0.167 0.054 0.334 0.081 0.501H71.519v1c0 5.118 0.944 6.354 1.655 6.838 0.314 0.214 0.638 0.293 0.919 0.293 0.079 0 0.155-0.006 0.227-0.018h16.97c-0.03 0.918-0.097 1.837-0.188 2.754H62.713C63.613 50.256 65.678 43.607 66.337 41.505zM71.42 61.781h-2.953c-0.72 0-1.337-0.418-1.643-1.02 1.651 0.021 3.795 0.047 6.2 0.072C72.707 61.396 72.11 61.781 71.42 61.781zM63.541 58.718c-0.343-0.078-1.428-0.517-1.203-2.63h28.517c-0.142 0.951-0.317 1.898-0.526 2.843C80.187 58.957 64.838 58.736 63.541 58.718z" fill="#8b3c7f" data-fill-palette-color="accent"></path><path d="M89.692 64.72c-0.512-0.203-1.095 0.048-1.299 0.561-0.298 0.753-0.628 1.516-0.98 2.267-0.234 0.5-0.02 1.096 0.48 1.33 0.138 0.064 0.282 0.095 0.424 0.095 0.376 0 0.736-0.213 0.906-0.575 0.37-0.789 0.716-1.589 1.029-2.378C90.456 65.505 90.205 64.924 89.692 64.72z" fill="#8b3c7f" data-fill-palette-color="accent"></path><path d="M65.618 50.547h3.599c0.553 0 1-0.448 1-1s-0.447-1-1-1h-3.599c-0.553 0-1 0.448-1 1S65.065 50.547 65.618 50.547z" fill="#8b3c7f" data-fill-palette-color="accent"></path><path d="M69.217 50.848h-3.599c-0.553 0-1 0.447-1 1s0.447 1 1 1h3.599c0.553 0 1-0.447 1-1S69.77 50.848 69.217 50.848z" fill="#8b3c7f" data-fill-palette-color="accent"></path><path d="M65.618 48.287h3.599c0.553 0 1-0.448 1-1s-0.447-1-1-1h-3.599c-0.553 0-1 0.448-1 1S65.065 48.287 65.618 48.287z" fill="#8b3c7f" data-fill-palette-color="accent"></path><path d="M34.824 41.129c2 0 4.017-0.675 4.017-2.185s-2.017-2.185-4.017-2.185c-1.999 0-4.016 0.675-4.016 2.185S32.825 41.129 34.824 41.129zM34.824 38.76c0.637 0 1.134 0.084 1.487 0.185-0.353 0.1-0.85 0.185-1.487 0.185s-1.134-0.084-1.486-0.185C33.69 38.845 34.187 38.76 34.824 38.76z" fill="#8b3c7f" data-fill-palette-color="accent"></path><path d="M34.446 57.289c-0.099 0-0.179 0.006-0.237 0.013-5.459 0.109-6.237 11.975-6.308 13.334l-0.043 0.834 0.813 0.191c1.695 0.398 3.58 0.601 5.603 0.601 3.421 0 6.043-0.573 6.153-0.598l0.886-0.197-0.11-0.9C39.741 58.583 35.991 57.289 34.446 57.289zM34.273 70.262c-1.542 0-2.989-0.125-4.316-0.373 0.332-3.937 1.668-10.588 4.328-10.588l0.012 0.036 0.148-0.048c1.124 0 3.486 2.241 4.649 10.586C38.087 70.037 36.321 70.262 34.273 70.262z" fill="#8b3c7f" data-fill-palette-color="accent"></path><path d="M50.365 52.898l-2 0.035c0.001 0.06 0.095 5.971-0.841 10.441l1.958 0.41C50.463 59.096 50.369 53.149 50.365 52.898z" fill="#8b3c7f" data-fill-palette-color="accent"></path><path d="M47.306 65.253c-0.026 0.064-0.26 0.673-0.591 2.33l1.961 0.393c0.292-1.458 0.488-1.982 0.49-1.987l-0.932-0.363L47.306 65.253z" fill="#8b3c7f" data-fill-palette-color="accent"></path><path d="M64.48 24.506v-4.743H51.854v4.743H64.48zM53.854 21.764h8.627v0.743h-8.627V21.764z" fill="#8b3c7f" data-fill-palette-color="accent"></path><rect x="56.875" y="75.021" width="2" height="10.854" fill="#8b3c7f" data-fill-palette-color="accent"></rect></g></svg></g></svg></g></svg></g></svg></g></svg></g></svg></g><defs></defs></svg><rect width="95.46047259010932" height="95.481" fill="none" stroke="none" visibility="hidden"></rect></g></svg></g></svg>